<svg width="60" height="50" viewBox="0 0 60 50" fill="none" xmlns="http://www.w3.org/2000/svg">
<path d="M30.4121 36.8581C29.9018 36.8581 29.4005 36.773 28.9081 36.6029C28.4157 36.4328 27.8472 36.0658 27.2026 35.5018L21.9921 31.1507C21.8847 31.1507 21.7773 31.1552 21.6698 31.1642C21.5714 31.1642 21.4729 31.1642 21.3744 31.1642C20.1031 31.1642 18.9348 31.0344 17.8694 30.7747C16.813 30.5061 15.8595 30.0854 15.009 29.5124C14.1585 28.9305 13.4155 28.1561 12.7798 27.1892C11.9741 27.1981 11.3071 26.9877 10.7789 26.558C10.2596 26.1283 10 25.5508 10 24.8257C10 24.1721 10.2283 23.6439 10.6849 23.241C11.1504 22.8382 11.7279 22.6412 12.4172 22.6502C12.9902 21.0029 13.7333 19.6421 14.6464 18.5677C15.5686 17.4845 16.625 16.6787 17.8157 16.1505C19.0154 15.6223 20.318 15.3582 21.7236 15.3582C22.78 15.3582 23.7648 15.479 24.6779 15.7208C25.6001 15.9625 26.4909 16.2937 27.3503 16.7145C28.2187 17.1263 29.0961 17.6053 29.9824 18.1514C30.8777 18.6886 31.8311 19.2571 32.8428 19.8569C33.559 20.2687 34.2081 20.6268 34.79 20.9312C35.3719 21.2267 35.927 21.3744 36.4552 21.3744C36.8133 21.3744 37.1222 21.3028 37.3818 21.1595C37.6504 21.0073 37.9235 20.8014 38.201 20.5418L31.003 16.0028C30.4659 15.6626 29.9108 15.291 29.3378 14.8882C28.7648 14.4763 28.2814 14.069 27.8875 13.6661C27.5025 13.2543 27.31 12.8828 27.31 12.5515C27.31 12.1755 27.4712 11.8353 27.7935 11.5309C28.1247 11.2176 28.541 10.949 29.0424 10.7252C29.5437 10.4924 30.0764 10.3133 30.6404 10.188C31.2045 10.0627 31.7192 10 32.1848 10C33.3307 10 34.4722 10.3044 35.6092 10.9132C36.7551 11.513 37.7847 12.4575 38.6979 13.7467L41.9208 18.232C42.9593 18.2051 43.9083 18.3752 44.7678 18.7423C45.6362 19.1004 46.3793 19.6107 46.997 20.2732C47.6237 20.9357 48.1027 21.7101 48.4339 22.5964C48.7741 23.4738 48.9442 24.4138 48.9442 25.4165C48.9442 26.5446 48.7652 27.4175 48.4071 28.0352C48.049 28.6529 47.5073 29.0827 46.7821 29.3244C46.0659 29.5661 45.1662 29.687 44.0829 29.687C43.3846 29.687 42.7355 29.6109 42.1357 29.4587C41.5359 29.2975 40.9718 29.0871 40.4436 28.8275C39.9154 28.5679 39.4096 28.2769 38.9262 27.9546C38.3621 28.2143 37.8518 28.4784 37.3952 28.7469C36.9387 29.0066 36.5134 29.2572 36.1195 29.499C35.7435 29.4363 35.3764 29.3915 35.0183 29.3647C34.6602 29.3378 34.2931 29.3244 33.9171 29.3244C33.4426 29.3244 32.9726 29.3468 32.5071 29.3915C32.0505 29.4273 31.6118 29.49 31.191 29.5795L30.3181 27.5652C29.4229 25.4613 28.2411 23.8946 26.7729 22.865C25.3046 21.8355 23.6081 21.3207 21.6833 21.3207C21.0655 21.3207 20.5194 21.3923 20.0449 21.5355C19.5704 21.6788 19.3332 21.9742 19.3332 22.4219C19.3332 22.6904 19.4182 22.8919 19.5883 23.0262C19.7584 23.1605 19.9867 23.2276 20.2732 23.2276H21.7907C22.8113 23.2276 23.7558 23.4201 24.6242 23.8051C25.4926 24.19 26.267 24.7451 26.9475 25.4703C27.6368 26.1954 28.2143 27.0773 28.6798 28.1158L30.1167 31.3119C30.4927 31.2224 30.8553 31.1418 31.2045 31.0702C31.5536 30.9896 31.9475 30.9269 32.3862 30.8822C32.8338 30.8284 33.3844 30.8016 34.038 30.8016C35.3272 30.8016 36.4284 30.9717 37.3415 31.3119C38.2637 31.6521 38.9709 32.1176 39.4633 32.7085C39.9557 33.2904 40.2019 33.9529 40.2019 34.696C40.2019 35.3764 39.9468 35.9046 39.4365 36.2806C38.9351 36.6656 38.2144 36.8581 37.2744 36.8581C36.8536 36.8581 36.491 36.8178 36.1866 36.7372C35.8822 36.6656 35.5555 36.594 35.2063 36.5224C34.8572 36.4507 34.4006 36.4149 33.8365 36.4149C32.995 36.4149 32.3235 36.4865 31.8222 36.6298C31.3298 36.782 30.8598 36.8581 30.4121 36.8581ZM20.8104 37.8787C19.4585 37.8787 18.3752 37.6191 17.5606 37.0998C16.7548 36.5895 16.3519 35.9136 16.3519 35.072C16.3519 34.499 16.5578 34.0425 16.9697 33.7023C17.3815 33.3531 17.9366 33.1785 18.6349 33.1785C19.0019 33.1785 19.3556 33.1964 19.6958 33.2322C20.0449 33.2681 20.3627 33.3039 20.6492 33.3397C20.9447 33.3665 21.1909 33.38 21.3878 33.38C21.5221 33.38 21.6385 33.3755 21.737 33.3665C21.8444 33.3576 21.9429 33.3486 22.0324 33.3397L25.9268 36.6029C25.3091 37.0237 24.5974 37.3415 23.7916 37.5564C22.9948 37.7713 22.0011 37.8787 20.8104 37.8787ZM43.4115 24.9062C43.7427 24.9062 44.0202 24.7854 44.2441 24.5437C44.4679 24.293 44.5798 24.0065 44.5798 23.6842C44.5798 23.3798 44.4679 23.1157 44.2441 22.8919C44.0292 22.6591 43.7606 22.5427 43.4383 22.5427C43.116 22.5427 42.843 22.6636 42.6191 22.9053C42.3953 23.147 42.2834 23.429 42.2834 23.7513C42.2834 24.0647 42.3909 24.3377 42.6057 24.5705C42.8295 24.7943 43.0981 24.9062 43.4115 24.9062Z" fill="white" fill-opacity="0.8"/>
</svg>
