<svg width="31" height="24" viewBox="0 0 31 24" fill="none" xmlns="http://www.w3.org/2000/svg">
<path d="M15.494 12.5927C15.1577 12.5927 14.8173 12.4336 14.473 12.1154L3.07357 1.55263C3.67417 1.18421 4.41491 1 5.2958 1H25.7042C26.5931 1 27.3338 1.18421 27.9264 1.55263L16.527 12.1154C16.1907 12.4336 15.8463 12.5927 15.494 12.5927ZM1.78829 19.8397C1.7002 19.6053 1.62813 19.3457 1.57207 19.061C1.52402 18.7679 1.5 18.4372 1.5 18.0688V4.93122C1.5 4.52931 1.52803 4.17763 1.58408 3.8762C1.64014 3.57476 1.70821 3.3445 1.78829 3.18541L10.2327 11.0102L1.78829 19.8397ZM5.04354 22C4.62713 22 4.25075 21.9539 3.91441 21.8618C3.58609 21.7697 3.30581 21.6525 3.07357 21.5102L11.7583 12.4169L13.2718 13.8236C13.6321 14.1585 13.9925 14.4097 14.3529 14.5772C14.7212 14.7362 15.1016 14.8158 15.494 14.8158C15.8944 14.8158 16.2748 14.7362 16.6351 14.5772C17.0035 14.4097 17.3679 14.1585 17.7282 13.8236L19.2417 12.4169L27.9264 21.5102C27.6942 21.6525 27.4099 21.7697 27.0736 21.8618C26.7452 21.9539 26.3729 22 25.9565 22H5.04354ZM29.2117 19.8397L20.7673 11.0102L29.2237 3.18541C29.2958 3.3445 29.3599 3.57476 29.4159 3.8762C29.472 4.17763 29.5 4.52931 29.5 4.93122V18.0688C29.5 18.4372 29.472 18.7679 29.4159 19.061C29.3679 19.3457 29.2998 19.6053 29.2117 19.8397Z" fill="black"/>
</svg>
