<svg width="33" height="21" viewBox="0 0 33 21" fill="none" xmlns="http://www.w3.org/2000/svg">
<path d="M11.9768 15.4474C10.9255 14.4081 9.98784 13.3189 9.16383 12.1799C8.33982 11.0409 7.68984 9.90906 7.21391 8.7843C6.73797 7.65243 6.5 6.58106 6.5 5.57021C6.5 4.16782 6.95107 3.02883 7.85322 2.15323C8.16578 1.86136 8.52096 1.59797 8.91875 1.36305C9.31655 1.12102 9.69304 1 10.0482 1C10.3395 1 10.6058 1.09966 10.8474 1.29899C11.096 1.49119 11.3482 1.76882 11.6039 2.13187L13.4046 4.64122C13.6035 4.92597 13.7421 5.1858 13.8202 5.42072C13.8983 5.64851 13.9374 5.86563 13.9374 6.07208C13.9374 6.25716 13.909 6.42801 13.8522 6.58462C13.8024 6.74124 13.7136 6.93344 13.5858 7.16124L12.6161 8.85905C12.5735 8.93736 12.538 9.0121 12.5096 9.08329C12.4812 9.15448 12.467 9.21854 12.467 9.27549C12.467 9.37516 12.4812 9.46414 12.5096 9.54245C12.538 9.61363 12.5629 9.6777 12.5842 9.73465C13.0246 10.6174 13.7598 11.5748 14.7898 12.607C15.2871 13.1054 15.8021 13.561 16.3348 13.9738C16.8676 14.3867 17.34 14.6857 17.752 14.8708C17.8586 14.9206 17.9473 14.9562 18.0184 14.9776C18.0965 14.9989 18.1853 15.0096 18.2848 15.0096C18.3629 15.0096 18.4304 15.0025 18.4872 14.9883C18.5511 14.974 18.6364 14.9384 18.7429 14.8815L20.4158 13.9525C20.6929 13.803 20.9131 13.7069 21.0765 13.6642C21.2469 13.6143 21.4174 13.5894 21.5879 13.5894C21.7797 13.5894 21.9679 13.625 22.1526 13.6962C22.3373 13.7603 22.5895 13.9062 22.9092 14.134L25.5197 16.0027C26.1732 16.4725 26.5 16.9317 26.5 17.3801C26.5 17.672 26.4112 17.9923 26.2336 18.3412C26.056 18.6971 25.7719 19.0922 25.3812 19.5264C24.9763 19.9749 24.4719 20.3308 23.8681 20.5942C23.2714 20.8647 22.6179 21 21.9076 21C20.8918 21 19.8156 20.7544 18.679 20.2632C17.5495 19.7791 16.4094 19.1171 15.2587 18.2771C14.115 17.4371 13.021 16.4939 11.9768 15.4474Z" fill="black"/>
</svg>
