<svg width="31" height="24" viewBox="0 0 31 24" fill="none" xmlns="http://www.w3.org/2000/svg">
<path d="M15.4946 13.4366C15.1943 13.4366 14.8905 13.3002 14.583 13.0275L4.40498 3.97368C4.94123 3.65789 5.6026 3.5 6.3891 3.5H24.6109C25.4045 3.5 26.0659 3.65789 26.595 3.97368L16.417 13.0275C16.1167 13.3002 15.8092 13.4366 15.4946 13.4366ZM3.2574 19.6483C3.17875 19.4474 3.1144 19.2249 3.06435 18.9809C3.02145 18.7297 3 18.4462 3 18.1304V6.86962C3 6.52512 3.02503 6.22368 3.07508 5.96531C3.12513 5.70694 3.1859 5.50957 3.2574 5.37321L10.7971 12.0801L3.2574 19.6483ZM6.16388 21.5C5.79208 21.5 5.45603 21.4605 5.15573 21.3816C4.86258 21.3026 4.61233 21.2022 4.40498 21.0801L12.1592 13.2859L13.5105 14.4916C13.8323 14.7787 14.154 14.994 14.4758 15.1376C14.8047 15.2739 15.1443 15.3421 15.4946 15.3421C15.8521 15.3421 16.1918 15.2739 16.5135 15.1376C16.8424 14.994 17.1677 14.7787 17.4895 14.4916L18.8408 13.2859L26.595 21.0801C26.3877 21.2022 26.1338 21.3026 25.8335 21.3816C25.5404 21.4605 25.2079 21.5 24.8361 21.5H6.16388ZM27.7426 19.6483L20.2029 12.0801L27.7533 5.37321C27.8177 5.50957 27.8749 5.70694 27.9249 5.96531C27.975 6.22368 28 6.52512 28 6.86962V18.1304C28 18.4462 27.975 18.7297 27.9249 18.9809C27.882 19.2249 27.8212 19.4474 27.7426 19.6483Z" fill="black"/>
</svg>
