<svg width="23" height="24" viewBox="0 0 23 24" fill="none" xmlns="http://www.w3.org/2000/svg">
<path d="M6.97682 15.9474C5.9255 14.9081 4.98784 13.8189 4.16383 12.6799C3.33982 11.5409 2.68984 10.4091 2.21391 9.2843C1.73797 8.15243 1.5 7.08106 1.5 6.07021C1.5 4.66782 1.95107 3.52883 2.85322 2.65323C3.16578 2.36136 3.52096 2.09797 3.91875 1.86305C4.31655 1.62102 4.69304 1.5 5.04822 1.5C5.33946 1.5 5.60584 1.59966 5.84736 1.79899C6.09599 1.99119 6.34816 2.26882 6.60389 2.63187L8.40463 5.14122C8.60353 5.42597 8.74205 5.6858 8.82019 5.92072C8.89833 6.14851 8.9374 6.36563 8.9374 6.57208C8.9374 6.75716 8.90899 6.92801 8.85216 7.08462C8.80243 7.24124 8.71364 7.43344 8.58578 7.66124L7.61614 9.35905C7.57352 9.43736 7.538 9.5121 7.50959 9.58329C7.48118 9.65448 7.46697 9.71854 7.46697 9.77549C7.46697 9.87516 7.48118 9.96414 7.50959 10.0424C7.538 10.1136 7.56287 10.1777 7.58418 10.2347C8.0246 11.1174 8.75981 12.0748 9.78982 13.107C10.2871 13.6054 10.8021 14.061 11.3348 14.4738C11.8676 14.8867 12.34 15.1857 12.752 15.3708C12.8586 15.4206 12.9473 15.4562 13.0184 15.4776C13.0965 15.4989 13.1853 15.5096 13.2848 15.5096C13.3629 15.5096 13.4304 15.5025 13.4872 15.4883C13.5511 15.474 13.6364 15.4384 13.7429 15.3815L15.4158 14.4525C15.6929 14.303 15.9131 14.2069 16.0765 14.1642C16.2469 14.1143 16.4174 14.0894 16.5879 14.0894C16.7797 14.0894 16.9679 14.125 17.1526 14.1962C17.3373 14.2603 17.5895 14.4062 17.9092 14.634L20.5197 16.5027C21.1732 16.9725 21.5 17.4317 21.5 17.8801C21.5 18.172 21.4112 18.4923 21.2336 18.8412C21.056 19.1971 20.7719 19.5922 20.3812 20.0264C19.9763 20.4749 19.4719 20.8308 18.8681 21.0942C18.2714 21.3647 17.6179 21.5 16.9076 21.5C15.8918 21.5 14.8156 21.2544 13.679 20.7632C12.5495 20.2791 11.4094 19.6171 10.2587 18.7771C9.11499 17.9371 8.02104 16.9939 6.97682 15.9474Z" fill="black"/>
</svg>
