<svg width="60" height="50" viewBox="0 0 60 50" fill="none" xmlns="http://www.w3.org/2000/svg">
<path d="M15.5772 23.9326H44.4228C44.7272 23.9326 44.9823 24.04 45.1882 24.2549C45.3941 24.4608 45.4971 24.7114 45.4971 25.0069C45.4971 25.3023 45.3941 25.5575 45.1882 25.7723C44.9823 25.9782 44.7272 26.0812 44.4228 26.0812H15.5772C15.2818 26.0812 15.0266 25.9782 14.8117 25.7723C14.6058 25.5575 14.5029 25.3023 14.5029 25.0069C14.5029 24.7114 14.6058 24.4608 14.8117 24.2549C15.0266 24.04 15.2818 23.9326 15.5772 23.9326ZM31.0743 10.5841V39.4297C31.0743 39.7251 30.9669 39.9758 30.752 40.1817C30.5461 40.3876 30.2954 40.4906 30 40.4906C29.7045 40.4906 29.4494 40.3876 29.2345 40.1817C29.0286 39.9758 28.9257 39.7251 28.9257 39.4297V10.5841C28.9257 10.2797 29.0286 10.0245 29.2345 9.81863C29.4494 9.61272 29.7045 9.50977 30 9.50977C30.2954 9.50977 30.5461 9.61272 30.752 9.81863C30.9669 10.0245 31.0743 10.2797 31.0743 10.5841ZM35.9356 13.4848L26.0518 37.3482C25.9355 37.6168 25.7385 37.8048 25.461 37.9122C25.1924 38.0286 24.9193 38.0331 24.6418 37.9256C24.3732 37.8092 24.1807 37.6168 24.0643 37.3482C23.9569 37.0796 23.9569 36.8065 24.0643 36.529L33.9481 12.6522C34.0645 12.3925 34.257 12.209 34.5256 12.1016C34.8031 11.9852 35.0806 11.9807 35.3582 12.0881C35.6268 12.2045 35.8192 12.397 35.9356 12.6656C36.052 12.9342 36.052 13.2072 35.9356 13.4848ZM42.6501 13.8742L18.8807 37.6436C18.6748 37.8406 18.4241 37.939 18.1287 37.939C17.8333 37.939 17.5826 37.8361 17.3767 37.6302C17.1618 37.4243 17.0499 37.1736 17.041 36.8782C17.041 36.5827 17.1439 36.3365 17.3498 36.1396L41.1327 12.3702C41.3386 12.1642 41.5848 12.0613 41.8713 12.0613C42.1667 12.0613 42.4218 12.1642 42.6367 12.3702C42.8426 12.585 42.9456 12.8402 42.9456 13.1356C42.9545 13.4221 42.8561 13.6683 42.6501 13.8742ZM42.3547 21.0587L18.4779 30.9291C18.2003 31.0365 17.9273 31.0365 17.6587 30.9291C17.3901 30.8127 17.2021 30.6202 17.0947 30.3516C16.9872 30.0741 16.9872 29.801 17.0947 29.5325C17.2021 29.2639 17.3856 29.0714 17.6453 28.955L41.5221 19.0847C41.7996 18.9772 42.0727 18.9817 42.3413 19.0981C42.6099 19.2055 42.7979 19.3935 42.9053 19.6621C43.0217 19.9397 43.0262 20.2127 42.9187 20.4813C42.8113 20.7499 42.6233 20.9424 42.3547 21.0587ZM41.5221 30.9425L17.6721 21.0453C17.3946 20.9289 17.1976 20.7409 17.0812 20.4813C16.9738 20.2127 16.9738 19.9397 17.0812 19.6621C17.2066 19.3935 17.4035 19.2011 17.6721 19.0847C17.9407 18.9683 18.2093 18.9638 18.4779 19.0712L42.3278 28.9684C42.6054 29.0848 42.7979 29.2773 42.9053 29.5459C43.0217 29.8055 43.0262 30.0741 42.9187 30.3516C42.8023 30.6202 42.6099 30.8127 42.3413 30.9291C42.0727 31.0455 41.7996 31.0499 41.5221 30.9425ZM41.1327 37.6436L17.3633 13.8608C17.1484 13.6549 17.041 13.4087 17.041 13.1222C17.0499 12.8357 17.1618 12.585 17.3767 12.3702C17.5826 12.1642 17.8333 12.0613 18.1287 12.0613C18.4241 12.0523 18.6748 12.1463 18.8807 12.3433L42.6367 36.153C42.8426 36.3589 42.9456 36.6051 42.9456 36.8916C42.9456 37.1781 42.8426 37.4243 42.6367 37.6302C42.4218 37.845 42.1667 37.9525 41.8713 37.9525C41.5848 37.9614 41.3386 37.8585 41.1327 37.6436ZM33.9481 37.3616L24.0778 13.4713C23.9703 13.1938 23.9703 12.9252 24.0778 12.6656C24.1852 12.397 24.3777 12.209 24.6552 12.1016C24.9238 11.9852 25.1924 11.9807 25.461 12.0881C25.7385 12.1956 25.9355 12.3836 26.0518 12.6522L35.9222 36.5424C36.0296 36.811 36.0251 37.0796 35.9088 37.3482C35.8013 37.6168 35.6133 37.8048 35.3447 37.9122C35.0762 38.0286 34.8031 38.0331 34.5256 37.9256C34.257 37.8182 34.0645 37.6302 33.9481 37.3616Z" fill="white" fill-opacity="0.8"/>
</svg>
