<svg width="23" height="21" viewBox="0 0 23 21" fill="none" xmlns="http://www.w3.org/2000/svg">
<path d="M6.97682 15.4474C5.9255 14.4081 4.98784 13.3189 4.16383 12.1799C3.33982 11.0409 2.68984 9.90906 2.21391 8.7843C1.73797 7.65243 1.5 6.58106 1.5 5.57021C1.5 4.16782 1.95107 3.02883 2.85322 2.15323C3.16578 1.86136 3.52096 1.59797 3.91875 1.36305C4.31655 1.12102 4.69304 1 5.04822 1C5.33946 1 5.60584 1.09966 5.84736 1.29899C6.09599 1.49119 6.34816 1.76882 6.60389 2.13187L8.40463 4.64122C8.60353 4.92597 8.74205 5.1858 8.82019 5.42072C8.89833 5.64851 8.9374 5.86563 8.9374 6.07208C8.9374 6.25716 8.90899 6.42801 8.85216 6.58462C8.80243 6.74124 8.71364 6.93344 8.58577 7.16124L7.61614 8.85905C7.57352 8.93736 7.538 9.0121 7.50959 9.08329C7.48118 9.15448 7.46697 9.21854 7.46697 9.27549C7.46697 9.37516 7.48118 9.46414 7.50959 9.54245C7.538 9.61363 7.56287 9.6777 7.58418 9.73465C8.0246 10.6174 8.75981 11.5748 9.78982 12.607C10.2871 13.1054 10.8021 13.561 11.3348 13.9738C11.8676 14.3867 12.34 14.6857 12.752 14.8708C12.8586 14.9206 12.9473 14.9562 13.0184 14.9776C13.0965 14.9989 13.1853 15.0096 13.2848 15.0096C13.3629 15.0096 13.4304 15.0025 13.4872 14.9883C13.5511 14.974 13.6364 14.9384 13.7429 14.8815L15.4158 13.9525C15.6929 13.803 15.9131 13.7069 16.0765 13.6642C16.2469 13.6143 16.4174 13.5894 16.5879 13.5894C16.7797 13.5894 16.9679 13.625 17.1526 13.6962C17.3373 13.7603 17.5895 13.9062 17.9092 14.134L20.5197 16.0027C21.1732 16.4725 21.5 16.9317 21.5 17.3801C21.5 17.672 21.4112 17.9923 21.2336 18.3412C21.056 18.6971 20.7719 19.0922 20.3812 19.5264C19.9763 19.9749 19.4719 20.3308 18.8681 20.5942C18.2714 20.8647 17.6179 21 16.9076 21C15.8918 21 14.8156 20.7544 13.679 20.2632C12.5495 19.7791 11.4094 19.1171 10.2587 18.2771C9.11499 17.4371 8.02104 16.4939 6.97682 15.4474Z" fill="black"/>
</svg>
