<svg width="60" height="60" viewBox="0 0 60 60" fill="none" xmlns="http://www.w3.org/2000/svg">
<path d="M30 42.7979C29.7135 42.7979 29.4629 42.6994 29.248 42.5025C29.0331 42.3145 28.8988 42.0638 28.8451 41.7504C28.6392 40.3359 28.4244 39.1183 28.2005 38.0977C27.9767 37.0771 27.7037 36.2087 27.3814 35.4925C27.0591 34.7763 26.6607 34.1809 26.1862 33.7064C25.7117 33.2319 25.1208 32.8425 24.4135 32.5381C23.7063 32.2248 22.8513 31.9651 21.8486 31.7592C20.8459 31.5444 19.6597 31.3429 18.2899 31.1549C17.9676 31.1191 17.7035 30.9938 17.4976 30.7789C17.3006 30.5551 17.2021 30.2955 17.2021 30C17.2021 29.6956 17.3051 29.436 17.511 29.2211C17.7169 28.9973 17.9766 28.8675 18.2899 28.8317C19.9372 28.6526 21.3249 28.4378 22.4529 28.1871C23.5899 27.9364 24.521 27.5918 25.2461 27.1531C25.9713 26.7144 26.5577 26.1235 27.0053 25.3804C27.453 24.6374 27.8111 23.6884 28.0797 22.5335C28.3572 21.3786 28.6124 19.9506 28.8451 18.2496C28.8988 17.9363 29.0287 17.6856 29.2346 17.4976C29.4494 17.3006 29.7046 17.2021 30 17.2021C30.2955 17.2021 30.5506 17.3006 30.7655 17.4976C30.9803 17.6856 31.1102 17.9363 31.1549 18.2496C31.3966 19.9417 31.6563 21.3652 31.9338 22.52C32.2113 23.6749 32.5739 24.6239 33.0216 25.367C33.4692 26.1011 34.0556 26.6875 34.7808 27.1262C35.5149 27.5649 36.4415 27.914 37.5606 28.1737C38.6886 28.4244 40.0718 28.6437 41.7101 28.8317C42.0235 28.8675 42.2831 28.9973 42.489 29.2211C42.6949 29.436 42.7979 29.6956 42.7979 30C42.7979 30.2955 42.6949 30.5551 42.489 30.7789C42.2831 30.9938 42.0235 31.1191 41.7101 31.1549C40.0718 31.3429 38.6841 31.5623 37.5471 31.8129C36.4191 32.0547 35.488 32.3993 34.7539 32.847C34.0287 33.2857 33.4423 33.8765 32.9947 34.6196C32.5471 35.3627 32.1845 36.3117 31.9069 37.4666C31.6294 38.6215 31.3787 40.0449 31.1549 41.737C31.1102 42.0593 30.9803 42.3145 30.7655 42.5025C30.5506 42.6994 30.2955 42.7979 30 42.7979Z" fill="white" fill-opacity="0.8"/>
</svg>
