<svg width="60" height="50" viewBox="0 0 60 50" fill="none" xmlns="http://www.w3.org/2000/svg">
<path d="M29.9933 27.2289C29.7158 27.2289 29.4382 27.1797 29.1607 27.0812C28.8832 26.9827 28.5743 26.8305 28.2341 26.6246L18.3772 20.9173C17.8311 20.595 17.4282 20.2816 17.1686 19.9772C16.9089 19.6639 16.7791 19.2924 16.7791 18.8626C16.7791 18.4329 16.9089 18.0658 17.1686 17.7614C17.4282 17.4571 17.8311 17.1392 18.3772 16.808L28.2341 11.1006C28.5743 10.9037 28.8832 10.756 29.1607 10.6575C29.4382 10.559 29.7158 10.5098 29.9933 10.5098C30.2798 10.5098 30.5618 10.559 30.8393 10.6575C31.1169 10.756 31.4257 10.9037 31.7659 11.1006L41.6094 16.808C42.1645 17.1392 42.5674 17.4571 42.818 17.7614C43.0777 18.0658 43.2075 18.4329 43.2075 18.8626C43.2075 19.2924 43.0777 19.6639 42.818 19.9772C42.5674 20.2816 42.1645 20.595 41.6094 20.9173L31.7659 26.6246C31.4257 26.8305 31.1169 26.9827 30.8393 27.0812C30.5618 27.1797 30.2798 27.2289 29.9933 27.2289ZM29.9933 33.5271C29.7337 33.5271 29.4785 33.4734 29.2278 33.366C28.9861 33.2496 28.7131 33.1019 28.4087 32.9228L17.8132 26.6918C17.4729 26.5038 17.2133 26.2799 17.0343 26.0203C16.8642 25.7517 16.7791 25.4608 16.7791 25.1474C16.7791 24.8251 16.8642 24.5386 17.0343 24.288C17.2133 24.0283 17.4192 23.8269 17.652 23.6837L29.1741 30.3713C29.3353 30.4698 29.4785 30.5459 29.6038 30.5996C29.7381 30.6533 29.868 30.6802 29.9933 30.6802C30.1186 30.6802 30.2484 30.6533 30.3827 30.5996C30.517 30.5459 30.6603 30.4698 30.8125 30.3713L42.3212 23.6837C42.5629 23.8269 42.7733 24.0283 42.9523 24.288C43.1314 24.5386 43.2209 24.8251 43.2209 25.1474C43.2209 25.4608 43.1314 25.7473 42.9523 26.0069C42.7822 26.2665 42.5271 26.4948 42.1869 26.6918L31.5913 32.9228C31.278 33.1019 30.996 33.2496 30.7453 33.366C30.5036 33.4734 30.2529 33.5271 29.9933 33.5271ZM29.9933 39.4896C29.7337 39.4896 29.4785 39.4359 29.2278 39.3285C28.9861 39.2211 28.7131 39.0733 28.4087 38.8853L17.8132 32.6543C17.4729 32.4573 17.2133 32.229 17.0343 31.9694C16.8642 31.7008 16.7791 31.4098 16.7791 31.0965C16.7791 30.7742 16.8642 30.4922 17.0343 30.2505C17.2133 29.9998 17.4192 29.7983 17.652 29.6462L29.1741 36.3338C29.3353 36.4233 29.4785 36.495 29.6038 36.5487C29.7381 36.6113 29.868 36.6427 29.9933 36.6427C30.1186 36.6427 30.2484 36.6113 30.3827 36.5487C30.517 36.495 30.6603 36.4233 30.8125 36.3338L42.3212 29.6462C42.5629 29.7983 42.7733 29.9998 42.9523 30.2505C43.1314 30.4922 43.2209 30.7742 43.2209 31.0965C43.2209 31.4098 43.1314 31.7008 42.9523 31.9694C42.7733 32.229 42.5181 32.4573 42.1869 32.6543L31.5913 38.8853C31.278 39.0733 30.996 39.2211 30.7453 39.3285C30.5036 39.4359 30.2529 39.4896 29.9933 39.4896Z" fill="white" fill-opacity="0.8"/>
</svg>
