<svg width="153" height="38" viewBox="0 0 153 38" fill="none" xmlns="http://www.w3.org/2000/svg">
<g clip-path="url(#clip0_292_69)">
<path d="M49.2646 15.1765V9.47302H45.4296V15.1765H40.7422V0H45.4296V6.09684H49.2646V0H53.952V15.1765H49.2646Z" fill="#151515"/>
<path d="M65.6893 14.6521C64.8698 15.111 63.8536 15.3732 62.3131 15.3732C56.5768 15.3732 55.2656 12.5542 55.2656 7.76852V0H59.953V7.76852C59.953 11.7347 60.9036 11.997 62.2147 11.997C63.0341 11.9642 63.6242 11.8987 64.0504 11.702C64.7715 11.2431 65.0337 10.1614 65.0337 7.76852V0H68.3771V7.76852C68.3771 10.063 68.3772 13.2426 65.6893 14.6521Z" fill="#151515"/>
<path d="M79.8162 15.1765L73.0309 6.39184V15.1765H69.6875V0H73.6865L78.9636 6.78519V0H82.3399V15.1765H79.8162Z" fill="#151515"/>
<path d="M92.2057 15.1765H87.5188V3.34342H83.6836V0H96.106V3.34342H92.2383V15.1765H92.2057Z" fill="#151515"/>
<path d="M107.053 15.1765H97.3828V0H108.429L107.085 3.34342H102.071V6.12961H106.234L104.922 9.47302H102.071V11.8003H108.397L107.053 15.1765Z" fill="#151515"/>
<path d="M116.233 0C118.528 0 119.97 0.885024 120.79 1.60615C121.871 2.62229 122.495 3.96622 122.495 5.37571C122.495 6.75241 121.937 8.06359 120.889 8.98138C120.658 9.17802 120.429 9.34195 120.199 9.50581L123.15 15.1437H118.004L115.512 10.4564H114.398V15.1765H109.711V0H116.233ZM117.708 6.65407C117.971 6.35906 118.135 5.90016 118.135 5.44126C118.135 3.76954 116.889 3.34342 116.233 3.34342H114.398V7.11297H116.529C117.086 7.11297 117.479 6.98186 117.708 6.65407Z" fill="#151515"/>
<path d="M50.6086 34.6468H45.9212V28.3205L40.7422 19.5031H45.8557L48.7074 24.846L51.5919 19.5031H55.4271L50.6414 28.3533V34.6468H50.6086Z" fill="#151515"/>
<path d="M66.3768 34.647H56.707V19.4706H67.7534L66.4096 22.8139H61.3944V25.6002H65.5573L64.2461 28.9436H61.3944V31.2709H67.7207L66.3768 34.647Z" fill="#151515"/>
<path d="M79.0944 31.8934H72.8006L71.4894 34.6796H67.7854L74.9311 19.5031H78.4387L85.4532 34.6796H80.4051L79.0944 31.8934ZM74.3411 28.5172H77.5209L75.9475 25.141L74.3411 28.5172Z" fill="#151515"/>
<path d="M96.8594 34.647L90.0735 25.8624V34.647H86.7305V19.4706H90.7292L96.0068 26.2557V19.4706H99.3831V34.647H96.8594Z" fill="#151515"/>
<path d="M110.562 34.6468H105.874V28.3205L100.695 19.5031H105.809L108.661 24.846L111.545 19.5031H115.38L110.595 28.3533V34.6468H110.562Z" fill="#151515"/>
</g>
<defs>
<clipPath id="clip0_292_69">
<rect width="123.422" height="37.8594" fill="white"/>
</clipPath>
</defs>
</svg>
