<svg width="163" height="29" viewBox="0 0 163 29" fill="none" xmlns="http://www.w3.org/2000/svg">
<path d="M120 0H112V29H120V0Z" fill="#151515"/>
<path d="M108.981 29V6.18291H109C109.001 4.83556 108.569 3.52503 107.771 2.45082C106.973 1.3766 105.853 0.597543 104.581 0.232241C103.309 -0.133061 101.955 -0.0646018 100.724 0.4272C99.4933 0.919 98.4544 1.80719 97.7645 2.95659L88.821 16.1834V6.18291H88.8401C88.8409 4.83531 88.4087 3.5245 87.6113 2.45009C86.8132 1.37569 85.6926 0.596543 84.4203 0.231325C83.148 -0.133893 81.7933 -0.0651796 80.563 0.427003C79.3319 0.919181 78.293 1.80787 77.6039 2.95773L60 29H69.8184L80.7353 12.8502V22.7864H80.7544C80.7537 24.1292 81.1822 25.4357 81.9744 26.5083C82.7674 27.5809 83.8806 28.3613 85.147 28.7313C86.4134 29.1014 87.763 29.0411 88.9925 28.5594C90.2221 28.0779 91.2647 27.2012 91.9619 26.0621L100.897 12.8482V28.9997L108.981 29Z" fill="#151515"/>
<path d="M131.52 6.82321H130.961V4.58885C130.961 4.43268 130.91 4.2829 130.82 4.17247C130.73 4.06205 130.608 4 130.48 4C130.353 4 130.231 4.06205 130.141 4.17247C130.051 4.2829 130 4.43268 130 4.58885V7.41097C130 7.4883 130.012 7.56489 130.037 7.63635C130.061 7.70781 130.096 7.77277 130.141 7.82745C130.185 7.88214 130.238 7.92551 130.296 7.9551C130.355 7.98469 130.417 8 130.48 8H131.52C131.647 8 131.769 7.93792 131.859 7.82745C131.949 7.717 132 7.56718 132 7.41097C132 7.25476 131.949 7.10493 131.859 6.99447C131.769 6.88402 131.647 6.82195 131.52 6.82195V6.82321Z" fill="#151515"/>
<path d="M129.199 4C129.062 4.00018 128.927 4.03764 128.807 4.10879C128.687 4.17995 128.587 4.28243 128.516 4.40647L127.333 6.22477V4.90475C127.336 4.88671 127.336 4.86836 127.336 4.84972C127.336 4.66455 127.279 4.48447 127.174 4.33689C127.068 4.18929 126.92 4.08227 126.752 4.03209C126.584 3.98192 126.406 3.99133 126.243 4.05891C126.081 4.12649 125.943 4.24853 125.852 4.40647L124.101 7.10215C124.059 7.16334 124.03 7.23269 124.013 7.30618C123.997 7.37967 123.996 7.45581 124.008 7.53011C124.02 7.60441 124.046 7.67538 124.085 7.7389C124.122 7.80236 124.173 7.85718 124.231 7.89997C124.289 7.94276 124.355 7.9727 124.425 7.98808C124.495 8.00346 124.566 8.00396 124.636 7.98956C124.706 7.97516 124.773 7.94611 124.832 7.90414C124.891 7.86217 124.941 7.80809 124.98 7.74513L126.265 5.76661V7.13254C126.265 7.16483 126.268 7.19707 126.273 7.22891C126.292 7.4041 126.362 7.56874 126.473 7.70002C126.584 7.83132 126.731 7.92271 126.893 7.96158C127.054 8.00052 127.224 7.98489 127.378 7.91707C127.531 7.84916 127.661 7.73235 127.749 7.58278L128.929 5.76631V7.41588C128.929 7.56617 128.986 7.71031 129.085 7.8166C129.186 7.92288 129.321 7.9826 129.463 7.9826C129.605 7.9826 129.741 7.92288 129.841 7.8166C129.941 7.71031 129.998 7.56617 129.998 7.41588V4.90505C129.998 4.88681 130 4.86857 130 4.85003C129.999 4.62474 129.915 4.40876 129.765 4.24943C129.614 4.0901 129.411 4.0004 129.199 4Z" fill="#151515"/>
<path d="M128 12C126.814 12 125.653 11.6481 124.667 10.9888C123.68 10.3295 122.911 9.39243 122.457 8.29608C122.003 7.19974 121.884 5.99334 122.115 4.82945C122.347 3.66557 122.918 2.59647 123.757 1.75737C124.596 0.91825 125.666 0.346802 126.83 0.115291C127.993 -0.11622 129.199 0.00259856 130.296 0.456724C131.392 0.910847 132.329 1.67989 132.989 2.66658C133.648 3.65327 134 4.8133 134 5.99999C133.998 7.59072 133.365 9.11572 132.24 10.2406C131.116 11.3654 129.591 11.9981 128 12ZM128 1.08675C127.029 1.0868 126.078 1.37501 125.27 1.91492C124.463 2.45482 123.832 3.22218 123.461 4.11997C123.089 5.01775 122.992 6.00564 123.182 6.95869C123.371 7.91177 123.839 8.78719 124.526 9.47431C125.213 10.1614 126.089 10.6293 127.042 10.8188C127.995 11.0084 128.983 10.9111 129.881 10.5392C130.778 10.1674 131.546 9.53756 132.086 8.72965C132.625 7.92167 132.914 6.97173 132.914 5.99999C132.912 4.69739 132.394 3.44859 131.472 2.52756C130.551 1.60653 129.303 1.08847 128 1.08702V1.08675Z" fill="#151515"/>
</svg>
