<svg width="192" height="29" viewBox="0 0 192 29" fill="none" xmlns="http://www.w3.org/2000/svg">
<g clip-path="url(#clip0_292_82)">
<path d="M69.0919 0.0263833L58.0874 16.1563V6.18252H58.1069C58.1071 4.8351 57.6716 3.5245 56.8667 2.45023C56.0617 1.37595 54.9314 0.596855 53.6477 0.231532C52.3641 -0.13379 50.9975 -0.0653267 49.756 0.426501C48.5144 0.918329 47.4659 1.80657 46.77 2.95603L29 29H38.9081L49.9295 12.8482V22.7872C49.9294 24.1297 50.362 25.4356 51.1616 26.5077C51.9612 27.5799 53.0845 28.3599 54.3616 28.7298C55.6388 29.0998 57.0005 29.0397 58.2409 28.5585C59.4813 28.0773 60.5329 27.2013 61.2369 26.0628L79 0.0263833H69.0919Z" fill="#151515"/>
<path d="M149 0H141V29H149V0Z" fill="#151515"/>
<path d="M85.5466 29L86.4293 27.701L90.9807 21.0044V6.18241H91C91.0002 4.83502 90.5662 3.52444 89.764 2.45019C88.9618 1.37594 87.8354 0.596843 86.5561 0.231528C85.2769 -0.133787 83.915 -0.0653255 82.6777 0.426493C81.4404 0.918313 80.3955 1.80655 79.7021 2.95599L62 28.9997H71.8732L82.8507 12.8493V28.9997L85.5466 29Z" fill="#151515"/>
<path d="M138.98 29V6.18291H139C139.001 4.83556 138.56 3.52503 137.746 2.45082C136.932 1.3766 135.789 0.597543 134.491 0.232241C133.192 -0.133061 131.811 -0.0646018 130.555 0.4272C129.299 0.919 128.239 1.80719 127.535 2.95659L118.409 16.1834V6.18291H118.429C118.429 4.83531 117.988 3.5245 117.175 2.45009C116.36 1.37569 115.217 0.596543 113.919 0.231325C112.62 -0.133893 111.238 -0.0651796 109.983 0.427003C108.726 0.919181 107.666 1.80787 106.963 2.95773L89 29H99.0188L110.158 12.8502V22.7864H110.178C110.177 24.1292 110.614 25.4357 111.423 26.5083C112.232 27.5809 113.368 28.3613 114.66 28.7313C115.952 29.1014 117.33 29.0411 118.584 28.5594C119.839 28.0779 120.903 27.2012 121.614 26.0621L130.731 12.8482V28.9997L138.98 29Z" fill="#151515"/>
<path d="M160.52 6.82321H159.961V4.58885C159.961 4.43268 159.91 4.2829 159.82 4.17247C159.73 4.06205 159.608 4 159.48 4C159.353 4 159.231 4.06205 159.141 4.17247C159.051 4.2829 159 4.43268 159 4.58885V7.41097C159 7.4883 159.012 7.56489 159.037 7.63635C159.061 7.70781 159.096 7.77277 159.141 7.82745C159.185 7.88214 159.238 7.92551 159.296 7.9551C159.355 7.98469 159.417 8 159.48 8H160.52C160.647 8 160.769 7.93792 160.859 7.82745C160.949 7.717 161 7.56718 161 7.41097C161 7.25476 160.949 7.10493 160.859 6.99447C160.769 6.88402 160.647 6.82195 160.52 6.82195V6.82321Z" fill="#151515"/>
<path d="M158.199 4C158.062 4.00018 157.927 4.03764 157.807 4.10879C157.687 4.17995 157.587 4.28243 157.516 4.40647L156.333 6.22477V4.90475C156.336 4.88671 156.336 4.86836 156.336 4.84972C156.336 4.66455 156.279 4.48447 156.174 4.33689C156.068 4.18929 155.92 4.08227 155.752 4.03209C155.584 3.98192 155.406 3.99133 155.243 4.05891C155.081 4.12649 154.943 4.24853 154.852 4.40647L153.101 7.10215C153.059 7.16334 153.03 7.23269 153.013 7.30618C152.997 7.37967 152.996 7.45581 153.008 7.53011C153.02 7.60441 153.046 7.67538 153.085 7.7389C153.122 7.80236 153.173 7.85718 153.231 7.89997C153.289 7.94276 153.355 7.9727 153.425 7.98808C153.495 8.00346 153.566 8.00396 153.636 7.98956C153.706 7.97516 153.773 7.94611 153.832 7.90414C153.891 7.86217 153.941 7.80809 153.98 7.74513L155.265 5.76661V7.13254C155.265 7.16483 155.268 7.19707 155.273 7.22891C155.292 7.4041 155.362 7.56874 155.473 7.70002C155.584 7.83132 155.731 7.92271 155.893 7.96158C156.054 8.00052 156.224 7.98489 156.378 7.91707C156.531 7.84916 156.661 7.73235 156.749 7.58278L157.929 5.76631V7.41588C157.929 7.56617 157.986 7.71031 158.085 7.8166C158.186 7.92288 158.321 7.9826 158.463 7.9826C158.605 7.9826 158.741 7.92288 158.841 7.8166C158.941 7.71031 158.998 7.56617 158.998 7.41588V4.90505C158.998 4.88681 159 4.86857 159 4.85003C158.999 4.62474 158.915 4.40876 158.765 4.24943C158.614 4.0901 158.411 4.0004 158.199 4Z" fill="#151515"/>
<path d="M157 12C155.814 12 154.653 11.6481 153.667 10.9888C152.68 10.3295 151.911 9.39243 151.457 8.29608C151.003 7.19974 150.884 5.99334 151.115 4.82945C151.347 3.66557 151.918 2.59647 152.757 1.75737C153.596 0.91825 154.666 0.346802 155.83 0.115291C156.993 -0.11622 158.199 0.00259856 159.296 0.456724C160.392 0.910847 161.329 1.67989 161.989 2.66658C162.648 3.65327 163 4.8133 163 5.99999C162.998 7.59072 162.365 9.11572 161.24 10.2406C160.116 11.3654 158.591 11.9981 157 12ZM157 1.08675C156.029 1.0868 155.078 1.37501 154.27 1.91492C153.463 2.45482 152.832 3.22218 152.461 4.11997C152.089 5.01775 151.992 6.00564 152.182 6.95869C152.371 7.91177 152.839 8.78719 153.526 9.47431C154.213 10.1614 155.089 10.6293 156.042 10.8188C156.995 11.0084 157.983 10.9111 158.881 10.5392C159.778 10.1674 160.546 9.53756 161.086 8.72965C161.625 7.92167 161.914 6.97173 161.914 5.99999C161.912 4.69739 161.394 3.44859 160.472 2.52756C159.551 1.60653 158.303 1.08847 157 1.08702V1.08675Z" fill="#151515"/>
</g>
<defs>
<clipPath id="clip0_292_82">
<rect width="134" height="29" fill="white" transform="translate(29)"/>
</clipPath>
</defs>
</svg>
