<svg width="176" height="44" viewBox="0 0 176 44" fill="none" xmlns="http://www.w3.org/2000/svg">
<mask id="path-1-outside-1_389_310" maskUnits="userSpaceOnUse" x="4" y="10" width="168" height="26" fill="black">
<rect fill="white" x="4" y="10" width="168" height="26"/>
<path d="M13.2723 13.875C12.3223 13.875 11.4639 14.0417 10.6973 14.375C9.9306 14.6917 9.2806 15.1667 8.74727 15.8C8.21393 16.4167 7.8056 17.175 7.52227 18.075C7.23893 18.9583 7.09727 19.9583 7.09727 21.075C7.09727 22.5417 7.32227 23.8167 7.77227 24.9C8.23893 25.9833 8.92227 26.8167 9.82227 27.4C10.7389 27.9833 11.8806 28.275 13.2473 28.275C14.0306 28.275 14.7723 28.2083 15.4723 28.075C16.1723 27.9417 16.8556 27.775 17.5223 27.575V29.525C16.8556 29.775 16.1639 29.9583 15.4473 30.075C14.7473 30.1917 13.9056 30.25 12.9223 30.25C11.1056 30.25 9.58893 29.875 8.37227 29.125C7.1556 28.375 6.23893 27.3083 5.62227 25.925C5.02227 24.5417 4.72227 22.9167 4.72227 21.05C4.72227 19.7 4.9056 18.4667 5.27227 17.35C5.6556 16.2333 6.2056 15.2667 6.92227 14.45C7.6556 13.6333 8.5556 13.0083 9.62227 12.575C10.6889 12.125 11.9139 11.9 13.2973 11.9C14.2139 11.9 15.0973 11.9917 15.9473 12.175C16.7973 12.3583 17.5556 12.6167 18.2223 12.95L17.3223 14.85C16.7723 14.6 16.1556 14.375 15.4723 14.175C14.8056 13.975 14.0723 13.875 13.2723 13.875ZM26.3182 30H24.0682V14.125H18.4932V12.15H31.8682V14.125H26.3182V30ZM41.2848 24.925C40.7514 26.1083 40.2098 27.1 39.6598 27.9C39.1264 28.6833 38.4931 29.275 37.7598 29.675C37.0264 30.0583 36.0931 30.25 34.9598 30.25C34.4931 30.25 34.0514 30.2167 33.6348 30.15C33.2348 30.0833 32.8681 29.9917 32.5348 29.875V27.65C32.8681 27.8 33.2264 27.925 33.6098 28.025C33.9931 28.1083 34.3931 28.15 34.8098 28.15C35.4264 28.15 35.9514 28.0667 36.3848 27.9C36.8348 27.7167 37.2264 27.425 37.5598 27.025C37.9098 26.625 38.2348 26.0917 38.5348 25.425L31.6598 12.15H34.1348L39.1098 21.975C39.1764 22.0917 39.2431 22.2333 39.3098 22.4C39.3764 22.55 39.4431 22.7083 39.5098 22.875C39.5931 23.0417 39.6598 23.2 39.7098 23.35H39.8098C39.8598 23.2333 39.9098 23.1 39.9598 22.95C40.0264 22.7833 40.0848 22.625 40.1348 22.475C40.2014 22.3083 40.2598 22.1667 40.3098 22.05L44.6098 12.15H46.9848L41.2848 24.925ZM59.4402 12.15V28H61.7152V34.7H59.5652V30H47.2902V34.7H45.1402V28H46.5152C47.1152 26.9667 47.6819 25.8083 48.2152 24.525C48.7652 23.2417 49.2486 21.9 49.6652 20.5C50.0819 19.0833 50.4236 17.6667 50.6902 16.25C50.9569 14.8333 51.1236 13.4667 51.1902 12.15H59.4402ZM53.1652 14.175C53.0986 15.1417 52.9319 16.2333 52.6652 17.45C52.4152 18.6667 52.0902 19.9167 51.6902 21.2C51.3069 22.4667 50.8736 23.6917 50.3902 24.875C49.9236 26.0583 49.4236 27.1 48.8902 28H57.2152V14.175H53.1652ZM63.9754 12.15H66.0754V21.95C66.0754 22.3667 66.0671 22.825 66.0504 23.325C66.0504 23.8083 66.0421 24.2917 66.0254 24.775C66.0087 25.2583 65.9837 25.6917 65.9504 26.075C65.9337 26.4417 65.9171 26.725 65.9004 26.925H66.0004L75.8254 12.15H78.3254V30H76.2254V20.3C76.2254 19.85 76.2337 19.3667 76.2504 18.85C76.2671 18.3167 76.2837 17.8083 76.3004 17.325C76.3337 16.825 76.3587 16.3833 76.3754 16C76.3921 15.6167 76.4087 15.3333 76.4254 15.15H76.3254L66.4754 30H63.9754V12.15ZM87.7648 22.6L83.1398 30H80.5148L85.5148 22.2C84.8815 21.9833 84.2815 21.6833 83.7148 21.3C83.1648 20.9167 82.7148 20.3917 82.3648 19.725C82.0148 19.0583 81.8398 18.2 81.8398 17.15C81.8398 15.5333 82.3982 14.3 83.5148 13.45C84.6315 12.5833 86.2982 12.15 88.5148 12.15H93.5148V30H91.2648V22.6H87.7648ZM88.5648 14.075C87.6148 14.075 86.8148 14.1833 86.1648 14.4C85.5148 14.6167 85.0148 14.9583 84.6648 15.425C84.3315 15.8917 84.1648 16.5 84.1648 17.25C84.1648 18.35 84.5315 19.2 85.2648 19.8C85.9982 20.4 87.1315 20.7 88.6648 20.7H91.2648V14.075H88.5648ZM110.601 27.875H114.026V30H104.426V27.875H108.326V15.225H108.226L104.601 17.025V14.6L108.501 12.55H110.601V27.875ZM129.699 17.375C129.699 18.1917 129.482 18.9833 129.049 19.75C128.632 20.5 128.091 21.1583 127.424 21.725C126.774 22.275 126.049 22.8417 125.249 23.425C124.449 23.9917 123.691 24.4917 122.974 24.925C121.241 25.975 120.182 26.925 119.799 27.775V27.875H129.449V30H117.499V28.7C117.499 27.8833 117.741 27.1 118.224 26.35C118.724 25.5833 119.341 24.925 120.074 24.375C120.824 23.825 121.632 23.2583 122.499 22.675C123.366 22.0917 124.166 21.5583 124.899 21.075C125.649 20.5917 126.266 20.0417 126.749 19.425C127.249 18.8083 127.499 18.1833 127.499 17.55C127.499 15.4833 126.182 14.45 123.549 14.45C121.532 14.45 119.766 14.95 118.249 15.95H118.124V13.725C119.907 12.775 121.849 12.3 123.949 12.3C125.582 12.3 126.949 12.775 128.049 13.725C129.149 14.6583 129.699 15.875 129.699 17.375ZM138.872 11.225H141.022L133.872 32.125H131.722L138.872 11.225ZM154.981 17.375C154.981 18.1917 154.765 18.9833 154.331 19.75C153.915 20.5 153.373 21.1583 152.706 21.725C152.056 22.275 151.331 22.8417 150.531 23.425C149.731 23.9917 148.973 24.4917 148.256 24.925C146.523 25.975 145.465 26.925 145.081 27.775V27.875H154.731V30H142.781V28.7C142.781 27.8833 143.023 27.1 143.506 26.35C144.006 25.5833 144.623 24.925 145.356 24.375C146.106 23.825 146.915 23.2583 147.781 22.675C148.648 22.0917 149.448 21.5583 150.181 21.075C150.931 20.5917 151.548 20.0417 152.031 19.425C152.531 18.8083 152.781 18.1833 152.781 17.55C152.781 15.4833 151.465 14.45 148.831 14.45C146.815 14.45 145.048 14.95 143.531 15.95H143.406V13.725C145.19 12.775 147.131 12.3 149.231 12.3C150.865 12.3 152.231 12.775 153.331 13.725C154.431 14.6583 154.981 15.875 154.981 17.375ZM157.179 21.275C157.179 18.525 157.754 16.3417 158.904 14.725C160.071 13.1083 161.746 12.3 163.929 12.3C166.129 12.3 167.813 13.1083 168.979 14.725C170.146 16.3417 170.729 18.525 170.729 21.275C170.729 24.025 170.146 26.2083 168.979 27.825C167.813 29.4417 166.129 30.25 163.929 30.25C161.746 30.25 160.071 29.4417 158.904 27.825C157.754 26.2083 157.179 24.025 157.179 21.275ZM160.604 26.325C161.388 27.5417 162.504 28.15 163.954 28.15C165.404 28.15 166.513 27.5417 167.279 26.325C168.063 25.1083 168.454 23.4333 168.454 21.3C168.454 19.15 168.063 17.4667 167.279 16.25C166.513 15.0333 165.404 14.425 163.954 14.425C162.504 14.425 161.388 15.0333 160.604 16.25C159.838 17.4667 159.454 19.15 159.454 21.3C159.454 23.4333 159.838 25.1083 160.604 26.325Z"/>
</mask>
<path d="M13.2723 13.875C12.3223 13.875 11.4639 14.0417 10.6973 14.375C9.9306 14.6917 9.2806 15.1667 8.74727 15.8C8.21393 16.4167 7.8056 17.175 7.52227 18.075C7.23893 18.9583 7.09727 19.9583 7.09727 21.075C7.09727 22.5417 7.32227 23.8167 7.77227 24.9C8.23893 25.9833 8.92227 26.8167 9.82227 27.4C10.7389 27.9833 11.8806 28.275 13.2473 28.275C14.0306 28.275 14.7723 28.2083 15.4723 28.075C16.1723 27.9417 16.8556 27.775 17.5223 27.575V29.525C16.8556 29.775 16.1639 29.9583 15.4473 30.075C14.7473 30.1917 13.9056 30.25 12.9223 30.25C11.1056 30.25 9.58893 29.875 8.37227 29.125C7.1556 28.375 6.23893 27.3083 5.62227 25.925C5.02227 24.5417 4.72227 22.9167 4.72227 21.05C4.72227 19.7 4.9056 18.4667 5.27227 17.35C5.6556 16.2333 6.2056 15.2667 6.92227 14.45C7.6556 13.6333 8.5556 13.0083 9.62227 12.575C10.6889 12.125 11.9139 11.9 13.2973 11.9C14.2139 11.9 15.0973 11.9917 15.9473 12.175C16.7973 12.3583 17.5556 12.6167 18.2223 12.95L17.3223 14.85C16.7723 14.6 16.1556 14.375 15.4723 14.175C14.8056 13.975 14.0723 13.875 13.2723 13.875ZM26.3182 30H24.0682V14.125H18.4932V12.15H31.8682V14.125H26.3182V30ZM41.2848 24.925C40.7514 26.1083 40.2098 27.1 39.6598 27.9C39.1264 28.6833 38.4931 29.275 37.7598 29.675C37.0264 30.0583 36.0931 30.25 34.9598 30.25C34.4931 30.25 34.0514 30.2167 33.6348 30.15C33.2348 30.0833 32.8681 29.9917 32.5348 29.875V27.65C32.8681 27.8 33.2264 27.925 33.6098 28.025C33.9931 28.1083 34.3931 28.15 34.8098 28.15C35.4264 28.15 35.9514 28.0667 36.3848 27.9C36.8348 27.7167 37.2264 27.425 37.5598 27.025C37.9098 26.625 38.2348 26.0917 38.5348 25.425L31.6598 12.15H34.1348L39.1098 21.975C39.1764 22.0917 39.2431 22.2333 39.3098 22.4C39.3764 22.55 39.4431 22.7083 39.5098 22.875C39.5931 23.0417 39.6598 23.2 39.7098 23.35H39.8098C39.8598 23.2333 39.9098 23.1 39.9598 22.95C40.0264 22.7833 40.0848 22.625 40.1348 22.475C40.2014 22.3083 40.2598 22.1667 40.3098 22.05L44.6098 12.15H46.9848L41.2848 24.925ZM59.4402 12.15V28H61.7152V34.7H59.5652V30H47.2902V34.7H45.1402V28H46.5152C47.1152 26.9667 47.6819 25.8083 48.2152 24.525C48.7652 23.2417 49.2486 21.9 49.6652 20.5C50.0819 19.0833 50.4236 17.6667 50.6902 16.25C50.9569 14.8333 51.1236 13.4667 51.1902 12.15H59.4402ZM53.1652 14.175C53.0986 15.1417 52.9319 16.2333 52.6652 17.45C52.4152 18.6667 52.0902 19.9167 51.6902 21.2C51.3069 22.4667 50.8736 23.6917 50.3902 24.875C49.9236 26.0583 49.4236 27.1 48.8902 28H57.2152V14.175H53.1652ZM63.9754 12.15H66.0754V21.95C66.0754 22.3667 66.0671 22.825 66.0504 23.325C66.0504 23.8083 66.0421 24.2917 66.0254 24.775C66.0087 25.2583 65.9837 25.6917 65.9504 26.075C65.9337 26.4417 65.9171 26.725 65.9004 26.925H66.0004L75.8254 12.15H78.3254V30H76.2254V20.3C76.2254 19.85 76.2337 19.3667 76.2504 18.85C76.2671 18.3167 76.2837 17.8083 76.3004 17.325C76.3337 16.825 76.3587 16.3833 76.3754 16C76.3921 15.6167 76.4087 15.3333 76.4254 15.15H76.3254L66.4754 30H63.9754V12.15ZM87.7648 22.6L83.1398 30H80.5148L85.5148 22.2C84.8815 21.9833 84.2815 21.6833 83.7148 21.3C83.1648 20.9167 82.7148 20.3917 82.3648 19.725C82.0148 19.0583 81.8398 18.2 81.8398 17.15C81.8398 15.5333 82.3982 14.3 83.5148 13.45C84.6315 12.5833 86.2982 12.15 88.5148 12.15H93.5148V30H91.2648V22.6H87.7648ZM88.5648 14.075C87.6148 14.075 86.8148 14.1833 86.1648 14.4C85.5148 14.6167 85.0148 14.9583 84.6648 15.425C84.3315 15.8917 84.1648 16.5 84.1648 17.25C84.1648 18.35 84.5315 19.2 85.2648 19.8C85.9982 20.4 87.1315 20.7 88.6648 20.7H91.2648V14.075H88.5648ZM110.601 27.875H114.026V30H104.426V27.875H108.326V15.225H108.226L104.601 17.025V14.6L108.501 12.55H110.601V27.875ZM129.699 17.375C129.699 18.1917 129.482 18.9833 129.049 19.75C128.632 20.5 128.091 21.1583 127.424 21.725C126.774 22.275 126.049 22.8417 125.249 23.425C124.449 23.9917 123.691 24.4917 122.974 24.925C121.241 25.975 120.182 26.925 119.799 27.775V27.875H129.449V30H117.499V28.7C117.499 27.8833 117.741 27.1 118.224 26.35C118.724 25.5833 119.341 24.925 120.074 24.375C120.824 23.825 121.632 23.2583 122.499 22.675C123.366 22.0917 124.166 21.5583 124.899 21.075C125.649 20.5917 126.266 20.0417 126.749 19.425C127.249 18.8083 127.499 18.1833 127.499 17.55C127.499 15.4833 126.182 14.45 123.549 14.45C121.532 14.45 119.766 14.95 118.249 15.95H118.124V13.725C119.907 12.775 121.849 12.3 123.949 12.3C125.582 12.3 126.949 12.775 128.049 13.725C129.149 14.6583 129.699 15.875 129.699 17.375ZM138.872 11.225H141.022L133.872 32.125H131.722L138.872 11.225ZM154.981 17.375C154.981 18.1917 154.765 18.9833 154.331 19.75C153.915 20.5 153.373 21.1583 152.706 21.725C152.056 22.275 151.331 22.8417 150.531 23.425C149.731 23.9917 148.973 24.4917 148.256 24.925C146.523 25.975 145.465 26.925 145.081 27.775V27.875H154.731V30H142.781V28.7C142.781 27.8833 143.023 27.1 143.506 26.35C144.006 25.5833 144.623 24.925 145.356 24.375C146.106 23.825 146.915 23.2583 147.781 22.675C148.648 22.0917 149.448 21.5583 150.181 21.075C150.931 20.5917 151.548 20.0417 152.031 19.425C152.531 18.8083 152.781 18.1833 152.781 17.55C152.781 15.4833 151.465 14.45 148.831 14.45C146.815 14.45 145.048 14.95 143.531 15.95H143.406V13.725C145.19 12.775 147.131 12.3 149.231 12.3C150.865 12.3 152.231 12.775 153.331 13.725C154.431 14.6583 154.981 15.875 154.981 17.375ZM157.179 21.275C157.179 18.525 157.754 16.3417 158.904 14.725C160.071 13.1083 161.746 12.3 163.929 12.3C166.129 12.3 167.813 13.1083 168.979 14.725C170.146 16.3417 170.729 18.525 170.729 21.275C170.729 24.025 170.146 26.2083 168.979 27.825C167.813 29.4417 166.129 30.25 163.929 30.25C161.746 30.25 160.071 29.4417 158.904 27.825C157.754 26.2083 157.179 24.025 157.179 21.275ZM160.604 26.325C161.388 27.5417 162.504 28.15 163.954 28.15C165.404 28.15 166.513 27.5417 167.279 26.325C168.063 25.1083 168.454 23.4333 168.454 21.3C168.454 19.15 168.063 17.4667 167.279 16.25C166.513 15.0333 165.404 14.425 163.954 14.425C162.504 14.425 161.388 15.0333 160.604 16.25C159.838 17.4667 159.454 19.15 159.454 21.3C159.454 23.4333 159.838 25.1083 160.604 26.325Z" fill="#304BD9"/>
<path d="M10.6973 14.375L10.85 14.7448L10.8568 14.7418L10.6973 14.375ZM8.74727 15.8L9.04984 16.0617L9.05323 16.0577L8.74727 15.8ZM7.52227 18.075L7.90316 18.1972L7.90381 18.1951L7.52227 18.075ZM7.77227 24.9L7.40284 25.0535L7.4049 25.0583L7.77227 24.9ZM9.82227 27.4L9.6047 27.7357L9.60752 27.7375L9.82227 27.4ZM15.4723 28.075L15.3974 27.6821V27.6821L15.4723 28.075ZM17.5223 27.575H17.9223V27.0374L17.4073 27.1919L17.5223 27.575ZM17.5223 29.525L17.6627 29.8995L17.9223 29.8022V29.525H17.5223ZM15.4473 30.075L15.383 29.6802L15.3815 29.6804L15.4473 30.075ZM8.37227 29.125L8.58217 28.7845V28.7845L8.37227 29.125ZM5.62227 25.925L5.25528 26.0842L5.25692 26.0879L5.62227 25.925ZM5.27227 17.35L4.8939 17.2201L4.89223 17.2252L5.27227 17.35ZM6.92227 14.45L6.62463 14.1827L6.62162 14.1862L6.92227 14.45ZM9.62227 12.575L9.77283 12.9456L9.77775 12.9435L9.62227 12.575ZM15.9473 12.175L16.0316 11.784V11.784L15.9473 12.175ZM18.2223 12.95L18.5838 13.1212L18.7514 12.7673L18.4012 12.5922L18.2223 12.95ZM17.3223 14.85L17.1567 15.2141L17.5152 15.3771L17.6838 15.0212L17.3223 14.85ZM15.4723 14.175L15.3573 14.5581L15.3599 14.5589L15.4723 14.175ZM13.2723 13.875V13.475C12.2749 13.475 11.3612 13.6502 10.5378 14.0082L10.6973 14.375L10.8568 14.7418C11.5667 14.4332 12.3697 14.275 13.2723 14.275V13.875ZM10.6973 14.375L10.5446 14.0053C9.71867 14.3464 9.01607 14.8598 8.4413 15.5423L8.74727 15.8L9.05323 16.0577C9.54513 15.4735 10.1425 15.0369 10.85 14.7447L10.6973 14.375ZM8.74727 15.8L8.44472 15.5383C7.87049 16.2023 7.4379 17.0109 7.14073 17.9549L7.52227 18.075L7.90381 18.1951C8.1733 17.3391 8.55737 16.631 9.04981 16.0617L8.74727 15.8ZM7.52227 18.075L7.14138 17.9528C6.84311 18.8827 6.69727 19.925 6.69727 21.075H7.09727H7.49727C7.49727 19.9916 7.63476 19.0339 7.90315 18.1972L7.52227 18.075ZM7.09727 21.075H6.69727C6.69727 22.5816 6.9283 23.911 7.40287 25.0534L7.77227 24.9L8.14166 24.7466C7.71624 23.7224 7.49727 22.5017 7.49727 21.075H7.09727ZM7.77227 24.9L7.4049 25.0583C7.89961 26.2067 8.63175 27.105 9.60471 27.7357L9.82227 27.4L10.0398 27.0643C9.21279 26.5283 8.57826 25.76 8.13963 24.7418L7.77227 24.9ZM9.82227 27.4L9.60752 27.7375C10.603 28.371 11.824 28.675 13.2473 28.675V28.275V27.875C11.9372 27.875 10.8748 27.5957 10.037 27.0625L9.82227 27.4ZM13.2473 28.275V28.675C14.0533 28.675 14.8201 28.6064 15.5471 28.4679L15.4723 28.075L15.3974 27.6821C14.7244 27.8103 14.0079 27.875 13.2473 27.875V28.275ZM15.4723 28.075L15.5471 28.4679C16.2603 28.3321 16.957 28.1622 17.6372 27.9581L17.5223 27.575L17.4073 27.1919C16.7542 27.3878 16.0842 27.5512 15.3974 27.6821L15.4723 28.075ZM17.5223 27.575H17.1223V29.525H17.5223H17.9223V27.575H17.5223ZM17.5223 29.525L17.3818 29.1505C16.7403 29.391 16.0742 29.5677 15.383 29.6802L15.4473 30.075L15.5115 30.4698C16.2537 30.349 16.9709 30.159 17.6627 29.8995L17.5223 29.525ZM15.4473 30.075L15.3815 29.6804C14.7097 29.7924 13.8913 29.85 12.9223 29.85V30.25V30.65C13.9199 30.65 14.7848 30.5909 15.513 30.4696L15.4473 30.075ZM12.9223 30.25V29.85C11.1599 29.85 9.72073 29.4863 8.58217 28.7845L8.37227 29.125L8.16237 29.4655C9.45714 30.2637 11.0513 30.65 12.9223 30.65V30.25ZM8.37227 29.125L8.58217 28.7845C7.43819 28.0793 6.57357 27.0766 5.98761 25.7621L5.62227 25.925L5.25692 26.0879C5.90429 27.5401 6.87301 28.6707 8.16237 29.4655L8.37227 29.125ZM5.62227 25.925L5.98923 25.7658C5.41555 24.4432 5.12227 22.8746 5.12227 21.05H4.72227H4.32227C4.32227 22.9588 4.62898 24.6402 5.2553 26.0842L5.62227 25.925ZM4.72227 21.05H5.12227C5.12227 19.7362 5.30066 18.5457 5.6523 17.4748L5.27227 17.35L4.89223 17.2252C4.51054 18.3876 4.32227 19.6638 4.32227 21.05H4.72227ZM5.27227 17.35L5.65059 17.4799C6.01848 16.4082 6.5435 15.4881 7.22292 14.7138L6.92227 14.45L6.62162 14.1862C5.8677 15.0453 5.29271 16.0585 4.89394 17.2201L5.27227 17.35ZM6.92227 14.45L7.21989 14.7172C7.91068 13.948 8.75955 13.3572 9.77282 12.9456L9.62227 12.575L9.47171 12.2044C8.35165 12.6594 7.40052 13.3187 6.62465 14.1827L6.92227 14.45ZM9.62227 12.575L9.77775 12.9435C10.7866 12.5179 11.9571 12.3 13.2973 12.3V11.9V11.5C11.8707 11.5 10.5913 11.7321 9.46679 12.2065L9.62227 12.575ZM13.2973 11.9V12.3C14.1871 12.3 15.0421 12.389 15.8629 12.566L15.9473 12.175L16.0316 11.784C15.1524 11.5944 14.2408 11.5 13.2973 11.5V11.9ZM15.9473 12.175L15.8629 12.566C16.6854 12.7434 17.4112 12.9917 18.0434 13.3078L18.2223 12.95L18.4012 12.5922C17.7 12.2417 16.9091 11.9733 16.0316 11.784L15.9473 12.175ZM18.2223 12.95L17.8608 12.7788L16.9608 14.6788L17.3223 14.85L17.6838 15.0212L18.5838 13.1212L18.2223 12.95ZM17.3223 14.85L17.4878 14.4859C16.9178 14.2268 16.283 13.9955 15.5846 13.7911L15.4723 14.175L15.3599 14.5589C16.0282 14.7545 16.6267 14.9732 17.1567 15.2141L17.3223 14.85ZM15.4723 14.175L15.5872 13.7919C14.8782 13.5792 14.1055 13.475 13.2723 13.475V13.875V14.275C14.039 14.275 14.733 14.3708 15.3573 14.5581L15.4723 14.175ZM26.3182 30V30.4H26.7182V30H26.3182ZM24.0682 30H23.6682V30.4H24.0682V30ZM24.0682 14.125H24.4682V13.725H24.0682V14.125ZM18.4932 14.125H18.0932V14.525H18.4932V14.125ZM18.4932 12.15V11.75H18.0932V12.15H18.4932ZM31.8682 12.15H32.2682V11.75H31.8682V12.15ZM31.8682 14.125V14.525H32.2682V14.125H31.8682ZM26.3182 14.125V13.725H25.9182V14.125H26.3182ZM26.3182 30V29.6H24.0682V30V30.4H26.3182V30ZM24.0682 30H24.4682V14.125H24.0682H23.6682V30H24.0682ZM24.0682 14.125V13.725H18.4932V14.125V14.525H24.0682V14.125ZM18.4932 14.125H18.8932V12.15H18.4932H18.0932V14.125H18.4932ZM18.4932 12.15V12.55H31.8682V12.15V11.75H18.4932V12.15ZM31.8682 12.15H31.4682V14.125H31.8682H32.2682V12.15H31.8682ZM31.8682 14.125V13.725H26.3182V14.125V14.525H31.8682V14.125ZM26.3182 14.125H25.9182V30H26.3182H26.7182V14.125H26.3182ZM41.2848 24.925L41.6494 25.0894L41.6501 25.088L41.2848 24.925ZM39.6598 27.9L39.3301 27.6734L39.3291 27.6749L39.6598 27.9ZM37.7598 29.675L37.9451 30.0295L37.9513 30.0262L37.7598 29.675ZM33.6348 30.15L33.569 30.5446L33.5716 30.545L33.6348 30.15ZM32.5348 29.875H32.1348V30.1588L32.4026 30.2525L32.5348 29.875ZM32.5348 27.65L32.6989 27.2852L32.1348 27.0314V27.65H32.5348ZM33.6098 28.025L33.5088 28.412L33.5168 28.4141L33.5248 28.4159L33.6098 28.025ZM36.3848 27.9L36.5284 28.2734L36.5357 28.2704L36.3848 27.9ZM37.5598 27.025L37.2586 26.7615L37.2525 26.7689L37.5598 27.025ZM38.5348 25.425L38.8995 25.5891L38.9789 25.4128L38.89 25.241L38.5348 25.425ZM31.6598 12.15V11.75H31.0021L31.3046 12.334L31.6598 12.15ZM34.1348 12.15L34.4916 11.9693L34.3806 11.75H34.1348V12.15ZM39.1098 21.975L38.7529 22.1557L38.7575 22.1647L38.7625 22.1735L39.1098 21.975ZM39.3098 22.4L38.9384 22.5486L38.9412 22.5556L38.9442 22.5625L39.3098 22.4ZM39.5098 22.875L39.1384 23.0236L39.1446 23.039L39.152 23.0539L39.5098 22.875ZM39.7098 23.35L39.3303 23.4765L39.4215 23.75H39.7098V23.35ZM39.8098 23.35V23.75H40.0735L40.1774 23.5076L39.8098 23.35ZM39.9598 22.95L39.5884 22.8014L39.584 22.8124L39.5803 22.8235L39.9598 22.95ZM40.1348 22.475L39.7634 22.3264L39.759 22.3374L39.7553 22.3485L40.1348 22.475ZM40.3098 22.05L39.9429 21.8906L39.9421 21.8924L40.3098 22.05ZM44.6098 12.15V11.75H44.3474L44.2429 11.9906L44.6098 12.15ZM46.9848 12.15L47.3501 12.313L47.6012 11.75H46.9848V12.15ZM41.2848 24.925L40.9201 24.7606C40.3935 25.929 39.863 26.8983 39.3302 27.6734L39.6598 27.9L39.9894 28.1266C40.5565 27.3017 41.1094 26.2877 41.6494 25.0894L41.2848 24.925ZM39.6598 27.9L39.3291 27.6749C38.8267 28.4129 38.2388 28.9581 37.5682 29.3238L37.7598 29.675L37.9513 30.0262C38.7474 29.5919 39.4262 28.9538 39.9904 28.1251L39.6598 27.9ZM37.7598 29.675L37.5745 29.3205C36.9155 29.665 36.0512 29.85 34.9598 29.85V30.25V30.65C36.135 30.65 37.1374 30.4517 37.9451 30.0295L37.7598 29.675ZM34.9598 30.25V29.85C34.5121 29.85 34.0917 29.818 33.698 29.755L33.6348 30.15L33.5716 30.545C34.0112 30.6153 34.4741 30.65 34.9598 30.65V30.25ZM33.6348 30.15L33.7005 29.7554C33.3199 29.692 32.9757 29.6056 32.6669 29.4975L32.5348 29.875L32.4026 30.2525C32.7605 30.3778 33.1497 30.4747 33.569 30.5446L33.6348 30.15ZM32.5348 29.875H32.9348V27.65H32.5348H32.1348V29.875H32.5348ZM32.5348 27.65L32.3706 28.0148C32.726 28.1747 33.1056 28.3069 33.5088 28.412L33.6098 28.025L33.7107 27.638C33.3473 27.5431 33.0102 27.4253 32.6989 27.2852L32.5348 27.65ZM33.6098 28.025L33.5248 28.4159C33.9377 28.5056 34.3663 28.55 34.8098 28.55V28.15V27.75C34.4199 27.75 34.0485 27.711 33.6947 27.6341L33.6098 28.025ZM34.8098 28.15V28.55C35.4603 28.55 36.0369 28.4624 36.5284 28.2733L36.3848 27.9L36.2412 27.5267C35.866 27.671 35.3925 27.75 34.8098 27.75V28.15ZM36.3848 27.9L36.5357 28.2704C37.0507 28.0606 37.4948 27.7277 37.8671 27.2811L37.5598 27.025L37.2525 26.7689C36.958 27.1223 36.6188 27.3727 36.2338 27.5296L36.3848 27.9ZM37.5598 27.025L37.8608 27.2884C38.2445 26.8498 38.5889 26.2794 38.8995 25.5891L38.5348 25.425L38.17 25.2609C37.8806 25.904 37.575 26.4002 37.2587 26.7616L37.5598 27.025ZM38.5348 25.425L38.89 25.241L32.015 11.966L31.6598 12.15L31.3046 12.334L38.1796 25.609L38.5348 25.425ZM31.6598 12.15V12.55H34.1348V12.15V11.75H31.6598V12.15ZM34.1348 12.15L33.7779 12.3307L38.7529 22.1557L39.1098 21.975L39.4666 21.7943L34.4916 11.9693L34.1348 12.15ZM39.1098 21.975L38.7625 22.1735C38.8175 22.2698 38.8765 22.3937 38.9384 22.5486L39.3098 22.4L39.6812 22.2514C39.6097 22.0729 39.5354 21.9136 39.4571 21.7765L39.1098 21.975ZM39.3098 22.4L38.9442 22.5625C39.0087 22.7075 39.0734 22.8611 39.1384 23.0236L39.5098 22.875L39.8812 22.7264C39.8128 22.5555 39.7442 22.3925 39.6753 22.2375L39.3098 22.4ZM39.5098 22.875L39.152 23.0539C39.2283 23.2065 39.2872 23.3473 39.3303 23.4765L39.7098 23.35L40.0892 23.2235C40.0323 23.0527 39.9579 22.8768 39.8675 22.6961L39.5098 22.875ZM39.7098 23.35V23.75H39.8098V23.35V22.95H39.7098V23.35ZM39.8098 23.35L40.1774 23.5076C40.2327 23.3786 40.2865 23.2346 40.3392 23.0765L39.9598 22.95L39.5803 22.8235C39.533 22.9654 39.4868 23.0881 39.4421 23.1924L39.8098 23.35ZM39.9598 22.95L40.3312 23.0986C40.4004 22.9256 40.4615 22.7598 40.5142 22.6015L40.1348 22.475L39.7553 22.3485C39.7081 22.4902 39.6525 22.6411 39.5884 22.8014L39.9598 22.95ZM40.1348 22.475L40.5062 22.6236C40.5721 22.4588 40.6291 22.3203 40.6774 22.2076L40.3098 22.05L39.9421 21.8924C39.8904 22.013 39.8308 22.1579 39.7634 22.3264L40.1348 22.475ZM40.3098 22.05L40.6767 22.2094L44.9767 12.3094L44.6098 12.15L44.2429 11.9906L39.9429 21.8906L40.3098 22.05ZM44.6098 12.15V12.55H46.9848V12.15V11.75H44.6098V12.15ZM46.9848 12.15L46.6195 11.987L40.9195 24.762L41.2848 24.925L41.6501 25.088L47.3501 12.313L46.9848 12.15ZM59.4402 12.15H59.8402V11.75H59.4402V12.15ZM59.4402 28H59.0402V28.4H59.4402V28ZM61.7152 28H62.1152V27.6H61.7152V28ZM61.7152 34.7V35.1H62.1152V34.7H61.7152ZM59.5652 34.7H59.1652V35.1H59.5652V34.7ZM59.5652 30H59.9652V29.6H59.5652V30ZM47.2902 30V29.6H46.8902V30H47.2902ZM47.2902 34.7V35.1H47.6902V34.7H47.2902ZM45.1402 34.7H44.7402V35.1H45.1402V34.7ZM45.1402 28V27.6H44.7402V28H45.1402ZM46.5152 28V28.4H46.7455L46.8611 28.2009L46.5152 28ZM48.2152 24.525L47.8476 24.3674L47.8459 24.3715L48.2152 24.525ZM49.6652 20.5L50.0486 20.6141L50.049 20.6129L49.6652 20.5ZM50.6902 16.25L51.0833 16.324V16.324L50.6902 16.25ZM51.1902 12.15V11.75H50.81L50.7907 12.1298L51.1902 12.15ZM53.1652 14.175V13.775H52.7919L52.7662 14.1475L53.1652 14.175ZM52.6652 17.45L52.2745 17.3644L52.2734 17.3695L52.6652 17.45ZM51.6902 21.2L51.3083 21.081L51.3074 21.0841L51.6902 21.2ZM50.3902 24.875L50.0199 24.7237L50.0181 24.7283L50.3902 24.875ZM48.8902 28L48.5461 27.7961L48.1882 28.4H48.8902V28ZM57.2152 28V28.4H57.6152V28H57.2152ZM57.2152 14.175H57.6152V13.775H57.2152V14.175ZM59.4402 12.15H59.0402V28H59.4402H59.8402V12.15H59.4402ZM59.4402 28V28.4H61.7152V28V27.6H59.4402V28ZM61.7152 28H61.3152V34.7H61.7152H62.1152V28H61.7152ZM61.7152 34.7V34.3H59.5652V34.7V35.1H61.7152V34.7ZM59.5652 34.7H59.9652V30H59.5652H59.1652V34.7H59.5652ZM59.5652 30V29.6H47.2902V30V30.4H59.5652V30ZM47.2902 30H46.8902V34.7H47.2902H47.6902V30H47.2902ZM47.2902 34.7V34.3H45.1402V34.7V35.1H47.2902V34.7ZM45.1402 34.7H45.5402V28H45.1402H44.7402V34.7H45.1402ZM45.1402 28V28.4H46.5152V28V27.6H45.1402V28ZM46.5152 28L46.8611 28.2009C47.4713 27.1501 48.0456 25.9756 48.5846 24.6785L48.2152 24.525L47.8459 24.3715C47.3182 25.6411 46.7592 26.7833 46.1693 27.7991L46.5152 28ZM48.2152 24.525L48.5829 24.6826C49.1392 23.3844 49.6278 22.0282 50.0486 20.6141L49.6652 20.5L49.2819 20.3859C48.8694 21.7718 48.3912 23.0989 47.8476 24.3674L48.2152 24.525ZM49.6652 20.5L50.049 20.6129C50.4693 19.1837 50.8141 17.7541 51.0833 16.324L50.6902 16.25L50.2971 16.176C50.033 17.5793 49.6945 18.9829 49.2815 20.3871L49.6652 20.5ZM50.6902 16.25L51.0833 16.324C51.353 14.8912 51.5221 13.5065 51.5897 12.1702L51.1902 12.15L50.7907 12.1298C50.7251 13.4268 50.5608 14.7755 50.2971 16.176L50.6902 16.25ZM51.1902 12.15V12.55H59.4402V12.15V11.75H51.1902V12.15ZM53.1652 14.175L52.7662 14.1475C52.7012 15.09 52.5381 16.1617 52.2745 17.3644L52.6652 17.45L53.056 17.5356C53.3257 16.3049 53.496 15.1933 53.5643 14.2025L53.1652 14.175ZM52.6652 17.45L52.2734 17.3695C52.0263 18.5722 51.7047 19.8093 51.3084 21.081L51.6902 21.2L52.0721 21.319C52.4757 20.024 52.8042 18.7612 53.057 17.5305L52.6652 17.45ZM51.6902 21.2L51.3074 21.0841C50.9275 22.3392 50.4984 23.5524 50.0199 24.7237L50.3902 24.875L50.7605 25.0262C51.2488 23.8309 51.6863 22.5941 52.0731 21.3159L51.6902 21.2ZM50.3902 24.875L50.0181 24.7283C49.5577 25.8959 49.0666 26.9178 48.5461 27.7961L48.8902 28L49.2344 28.2039C49.7805 27.2822 50.2895 26.2208 50.7623 25.0217L50.3902 24.875ZM48.8902 28V28.4H57.2152V28V27.6H48.8902V28ZM57.2152 28H57.6152V14.175H57.2152H56.8152V28H57.2152ZM57.2152 14.175V13.775H53.1652V14.175V14.575H57.2152V14.175ZM63.9754 12.15V11.75H63.5754V12.15H63.9754ZM66.0754 12.15H66.4754V11.75H66.0754V12.15ZM66.0504 23.325L65.6504 23.3117V23.325H66.0504ZM65.9504 26.075L65.5519 26.0403L65.5512 26.0486L65.5508 26.0568L65.9504 26.075ZM65.9004 26.925L65.5018 26.8918L65.4657 27.325H65.9004V26.925ZM66.0004 26.925V27.325H66.2148L66.3335 27.1465L66.0004 26.925ZM75.8254 12.15V11.75H75.611L75.4923 11.9285L75.8254 12.15ZM78.3254 12.15H78.7254V11.75H78.3254V12.15ZM78.3254 30V30.4H78.7254V30H78.3254ZM76.2254 30H75.8254V30.4H76.2254V30ZM76.2504 18.85L76.6502 18.8629L76.6502 18.8625L76.2504 18.85ZM76.3004 17.325L75.9011 17.2984L75.9006 17.3112L76.3004 17.325ZM76.4254 15.15L76.8237 15.1862L76.8634 14.75H76.4254V15.15ZM76.3254 15.15V14.75H76.1107L75.9921 14.9289L76.3254 15.15ZM66.4754 30V30.4H66.6901L66.8087 30.2211L66.4754 30ZM63.9754 30H63.5754V30.4H63.9754V30ZM63.9754 12.15V12.55H66.0754V12.15V11.75H63.9754V12.15ZM66.0754 12.15H65.6754V21.95H66.0754H66.4754V12.15H66.0754ZM66.0754 21.95H65.6754C65.6754 22.3615 65.6672 22.8153 65.6506 23.3117L66.0504 23.325L66.4502 23.3383C66.467 22.8347 66.4754 22.3719 66.4754 21.95H66.0754ZM66.0504 23.325H65.6504C65.6504 23.8037 65.6421 24.2825 65.6256 24.7612L66.0254 24.775L66.4252 24.7888C66.442 24.3009 66.4504 23.8129 66.4504 23.325H66.0504ZM66.0254 24.775L65.6256 24.7612C65.6091 25.2393 65.5845 25.6654 65.5519 26.0403L65.9504 26.075L66.3489 26.1097C66.383 25.7179 66.4083 25.2774 66.4252 24.7888L66.0254 24.775ZM65.9504 26.075L65.5508 26.0568C65.5342 26.4219 65.5178 26.6993 65.5018 26.8918L65.9004 26.925L66.299 26.9582C66.3163 26.7507 66.3332 26.4615 66.35 26.0932L65.9504 26.075ZM65.9004 26.925V27.325H66.0004V26.925V26.525H65.9004V26.925ZM66.0004 26.925L66.3335 27.1465L76.1585 12.3715L75.8254 12.15L75.4923 11.9285L65.6673 26.7035L66.0004 26.925ZM75.8254 12.15V12.55H78.3254V12.15V11.75H75.8254V12.15ZM78.3254 12.15H77.9254V30H78.3254H78.7254V12.15H78.3254ZM78.3254 30V29.6H76.2254V30V30.4H78.3254V30ZM76.2254 30H76.6254V20.3H76.2254H75.8254V30H76.2254ZM76.2254 20.3H76.6254C76.6254 19.8549 76.6336 19.3759 76.6502 18.8629L76.2504 18.85L75.8506 18.8371C75.8338 19.3575 75.8254 19.8451 75.8254 20.3H76.2254ZM76.2504 18.85L76.6502 18.8625C76.6669 18.3295 76.6835 17.8216 76.7001 17.3388L76.3004 17.325L75.9006 17.3112C75.8839 17.795 75.8673 18.3038 75.8506 18.8375L76.2504 18.85ZM76.3004 17.325L76.6995 17.3516C76.733 16.8494 76.7582 16.4046 76.775 16.0174L76.3754 16L75.9758 15.9826C75.9593 16.3621 75.9345 16.8006 75.9013 17.2984L76.3004 17.325ZM76.3754 16L76.775 16.0174C76.7916 15.6351 76.808 15.3596 76.8237 15.1862L76.4254 15.15L76.027 15.1138C76.0095 15.307 75.9925 15.5982 75.9758 15.9826L76.3754 16ZM76.4254 15.15V14.75H76.3254V15.15V15.55H76.4254V15.15ZM76.3254 15.15L75.9921 14.9289L66.1421 29.7789L66.4754 30L66.8087 30.2211L76.6587 15.3711L76.3254 15.15ZM66.4754 30V29.6H63.9754V30V30.4H66.4754V30ZM63.9754 30H64.3754V12.15H63.9754H63.5754V30H63.9754ZM87.7648 22.6V22.2H87.5431L87.4256 22.388L87.7648 22.6ZM83.1398 30V30.4H83.3615L83.479 30.212L83.1398 30ZM80.5148 30L80.1781 29.7841L79.7833 30.4H80.5148V30ZM85.5148 22.2L85.8516 22.4159L86.1268 21.9866L85.6443 21.8215L85.5148 22.2ZM83.7148 21.3L83.4861 21.6282L83.4907 21.6313L83.7148 21.3ZM82.3648 19.725L82.0107 19.9109V19.9109L82.3648 19.725ZM83.5148 13.45L83.7571 13.7683L83.7601 13.766L83.5148 13.45ZM93.5148 12.15H93.9148V11.75H93.5148V12.15ZM93.5148 30V30.4H93.9148V30H93.5148ZM91.2648 30H90.8648V30.4H91.2648V30ZM91.2648 22.6H91.6648V22.2H91.2648V22.6ZM86.1648 14.4L86.2913 14.7795V14.7795L86.1648 14.4ZM84.6648 15.425L84.3448 15.1849L84.3393 15.1925L84.6648 15.425ZM91.2648 20.7V21.1H91.6648V20.7H91.2648ZM91.2648 14.075H91.6648V13.675H91.2648V14.075ZM87.7648 22.6L87.4256 22.388L82.8006 29.788L83.1398 30L83.479 30.212L88.104 22.812L87.7648 22.6ZM83.1398 30V29.6H80.5148V30V30.4H83.1398V30ZM80.5148 30L80.8516 30.2159L85.8516 22.4159L85.5148 22.2L85.1781 21.9841L80.1781 29.7841L80.5148 30ZM85.5148 22.2L85.6443 21.8215C85.0452 21.6166 84.477 21.3326 83.939 20.9687L83.7148 21.3L83.4907 21.6313C84.0861 22.034 84.7178 22.3501 85.3854 22.5785L85.5148 22.2ZM83.7148 21.3L83.9436 20.9718C83.4524 20.6295 83.0429 20.156 82.719 19.5391L82.3648 19.725L82.0107 19.9109C82.3868 20.6273 82.8773 21.2038 83.4861 21.6282L83.7148 21.3ZM82.3648 19.725L82.719 19.5391C82.4086 18.9479 82.2398 18.1594 82.2398 17.15H81.8398H81.4398C81.4398 18.2406 81.6211 19.1688 82.0107 19.9109L82.3648 19.725ZM81.8398 17.15H82.2398C82.2398 15.6367 82.7558 14.5305 83.7571 13.7683L83.5148 13.45L83.2726 13.1317C82.0405 14.0695 81.4398 15.43 81.4398 17.15H81.8398ZM83.5148 13.45L83.7601 13.766C84.7767 12.977 86.3397 12.55 88.5148 12.55V12.15V11.75C86.2567 11.75 84.4864 12.1897 83.2696 13.134L83.5148 13.45ZM88.5148 12.15V12.55H93.5148V12.15V11.75H88.5148V12.15ZM93.5148 12.15H93.1148V30H93.5148H93.9148V12.15H93.5148ZM93.5148 30V29.6H91.2648V30V30.4H93.5148V30ZM91.2648 30H91.6648V22.6H91.2648H90.8648V30H91.2648ZM91.2648 22.6V22.2H87.7648V22.6V23H91.2648V22.6ZM88.5648 14.075V13.675C87.5872 13.675 86.7415 13.7861 86.0384 14.0205L86.1648 14.4L86.2913 14.7795C86.8882 14.5805 87.6425 14.475 88.5648 14.475V14.075ZM86.1648 14.4L86.0384 14.0205C85.325 14.2583 84.7517 14.6425 84.3448 15.185L84.6648 15.425L84.9848 15.665C85.278 15.2742 85.7047 14.975 86.2913 14.7795L86.1648 14.4ZM84.6648 15.425L84.3393 15.1925C83.9446 15.7452 83.7648 16.4421 83.7648 17.25H84.1648H84.5648C84.5648 16.5579 84.7184 16.0382 84.9903 15.6575L84.6648 15.425ZM84.1648 17.25H83.7648C83.7648 18.4484 84.1699 19.4209 85.0116 20.1096L85.2648 19.8L85.5181 19.4904C84.8932 18.9791 84.5648 18.2516 84.5648 17.25H84.1648ZM85.2648 19.8L85.0116 20.1096C85.8488 20.7946 87.0923 21.1 88.6648 21.1V20.7V20.3C87.1707 20.3 86.1475 20.0054 85.5181 19.4904L85.2648 19.8ZM88.6648 20.7V21.1H91.2648V20.7V20.3H88.6648V20.7ZM91.2648 20.7H91.6648V14.075H91.2648H90.8648V20.7H91.2648ZM91.2648 14.075V13.675H88.5648V14.075V14.475H91.2648V14.075ZM110.601 27.875H110.201V28.275H110.601V27.875ZM114.026 27.875H114.426V27.475H114.026V27.875ZM114.026 30V30.4H114.426V30H114.026ZM104.426 30H104.026V30.4H104.426V30ZM104.426 27.875V27.475H104.026V27.875H104.426ZM108.326 27.875V28.275H108.726V27.875H108.326ZM108.326 15.225H108.726V14.825H108.326V15.225ZM108.226 15.225V14.825H108.132L108.048 14.8667L108.226 15.225ZM104.601 17.025H104.201V17.6702L104.779 17.3833L104.601 17.025ZM104.601 14.6L104.415 14.2459L104.201 14.3584V14.6H104.601ZM108.501 12.55V12.15H108.402L108.315 12.1959L108.501 12.55ZM110.601 12.55H111.001V12.15H110.601V12.55ZM110.601 27.875V28.275H114.026V27.875V27.475H110.601V27.875ZM114.026 27.875H113.626V30H114.026H114.426V27.875H114.026ZM114.026 30V29.6H104.426V30V30.4H114.026V30ZM104.426 30H104.826V27.875H104.426H104.026V30H104.426ZM104.426 27.875V28.275H108.326V27.875V27.475H104.426V27.875ZM108.326 27.875H108.726V15.225H108.326H107.926V27.875H108.326ZM108.326 15.225V14.825H108.226V15.225V15.625H108.326V15.225ZM108.226 15.225L108.048 14.8667L104.423 16.6667L104.601 17.025L104.779 17.3833L108.404 15.5833L108.226 15.225ZM104.601 17.025H105.001V14.6H104.601H104.201V17.025H104.601ZM104.601 14.6L104.787 14.9541L108.687 12.9041L108.501 12.55L108.315 12.1959L104.415 14.2459L104.601 14.6ZM108.501 12.55V12.95H110.601V12.55V12.15H108.501V12.55ZM110.601 12.55H110.201V27.875H110.601H111.001V12.55H110.601ZM129.049 19.75L128.701 19.5532L128.699 19.5557L129.049 19.75ZM127.424 21.725L127.682 22.0304L127.683 22.0298L127.424 21.725ZM125.249 23.425L125.48 23.7514L125.485 23.7482L125.249 23.425ZM122.974 24.925L122.767 24.5827L122.767 24.5829L122.974 24.925ZM119.799 27.775L119.434 27.6106L119.399 27.689V27.775H119.799ZM119.799 27.875H119.399V28.275H119.799V27.875ZM129.449 27.875H129.849V27.475H129.449V27.875ZM129.449 30V30.4H129.849V30H129.449ZM117.499 30H117.099V30.4H117.499V30ZM118.224 26.35L117.889 26.1315L117.888 26.1333L118.224 26.35ZM120.074 24.375L119.837 24.0524L119.834 24.055L120.074 24.375ZM122.499 22.675L122.722 23.0068V23.0068L122.499 22.675ZM124.899 21.075L124.682 20.7388L124.679 20.741L124.899 21.075ZM126.749 19.425L126.438 19.173L126.434 19.1782L126.749 19.425ZM118.249 15.95V16.35H118.369L118.469 16.2839L118.249 15.95ZM118.124 15.95H117.724V16.35H118.124V15.95ZM118.124 13.725L117.936 13.372L117.724 13.4849V13.725H118.124ZM128.049 13.725L127.788 14.0277L127.79 14.03L128.049 13.725ZM129.699 17.375H129.299C129.299 18.1173 129.103 18.8417 128.701 19.5532L129.049 19.75L129.397 19.9468C129.862 19.125 130.099 18.266 130.099 17.375H129.699ZM129.049 19.75L128.699 19.5557C128.306 20.2629 127.796 20.884 127.165 21.4202L127.424 21.725L127.683 22.0298C128.386 21.4326 128.958 20.7371 129.399 19.9443L129.049 19.75ZM127.424 21.725L127.166 21.4196C126.524 21.9625 125.807 22.5233 125.013 23.1018L125.249 23.425L125.485 23.7482C126.291 23.1601 127.024 22.5875 127.682 22.0304L127.424 21.725ZM125.249 23.425L125.018 23.0986C124.224 23.6606 123.474 24.1551 122.767 24.5827L122.974 24.925L123.181 25.2673C123.907 24.8282 124.674 24.3227 125.48 23.7514L125.249 23.425ZM122.974 24.925L122.767 24.5829C121.029 25.6357 119.872 26.6394 119.434 27.6106L119.799 27.775L120.164 27.9394C120.492 27.2106 121.453 26.3143 123.181 25.2671L122.974 24.925ZM119.799 27.775H119.399V27.875H119.799H120.199V27.775H119.799ZM119.799 27.875V28.275H129.449V27.875V27.475H119.799V27.875ZM129.449 27.875H129.049V30H129.449H129.849V27.875H129.449ZM129.449 30V29.6H117.499V30V30.4H129.449V30ZM117.499 30H117.899V28.7H117.499H117.099V30H117.499ZM117.499 28.7H117.899C117.899 27.9673 118.115 27.2583 118.56 26.5667L118.224 26.35L117.888 26.1333C117.367 26.9417 117.099 27.7994 117.099 28.7H117.499ZM118.224 26.35L118.559 26.5685C119.034 25.841 119.618 25.217 120.314 24.695L120.074 24.375L119.834 24.055C119.063 24.633 118.415 25.3256 117.889 26.1315L118.224 26.35ZM120.074 24.375L120.311 24.6976C121.056 24.1511 121.86 23.5875 122.722 23.0068L122.499 22.675L122.276 22.3432C121.405 22.9291 120.592 23.4989 119.837 24.0524L120.074 24.375ZM122.499 22.675L122.722 23.0068C123.588 22.4241 124.387 21.8915 125.119 21.409L124.899 21.075L124.679 20.741C123.944 21.2252 123.143 21.7592 122.276 22.3432L122.499 22.675ZM124.899 21.075L125.116 21.4112C125.898 20.9071 126.549 20.328 127.064 19.6718L126.749 19.425L126.434 19.1782C125.982 19.7553 125.4 20.2763 124.682 20.7388L124.899 21.075ZM126.749 19.425L127.06 19.6769C127.603 19.0075 127.899 18.2963 127.899 17.55H127.499H127.099C127.099 18.0703 126.896 18.6092 126.438 19.1731L126.749 19.425ZM127.499 17.55H127.899C127.899 16.4257 127.536 15.5205 126.758 14.9103C125.999 14.3146 124.907 14.05 123.549 14.05V14.45V14.85C124.824 14.85 125.707 15.1021 126.265 15.5397C126.804 15.9628 127.099 16.6076 127.099 17.55H127.499ZM123.549 14.45V14.05C121.463 14.05 119.618 14.5683 118.029 15.6161L118.249 15.95L118.469 16.2839C119.913 15.3317 121.602 14.85 123.549 14.85V14.45ZM118.249 15.95V15.55H118.124V15.95V16.35H118.249V15.95ZM118.124 15.95H118.524V13.725H118.124H117.724V15.95H118.124ZM118.124 13.725L118.312 14.078C120.035 13.1601 121.912 12.7 123.949 12.7V12.3V11.9C121.786 11.9 119.779 12.3899 117.936 13.372L118.124 13.725ZM123.949 12.3V12.7C125.499 12.7 126.769 13.1483 127.788 14.0277L128.049 13.725L128.31 13.4223C127.129 12.4017 125.666 11.9 123.949 11.9V12.3ZM128.049 13.725L127.79 14.03C128.797 14.8839 129.299 15.9871 129.299 17.375H129.699H130.099C130.099 15.7629 129.501 14.4327 128.308 13.42L128.049 13.725ZM138.872 11.225V10.825H138.586L138.494 11.0955L138.872 11.225ZM141.022 11.225L141.401 11.3545L141.582 10.825H141.022V11.225ZM133.872 32.125V32.525H134.158L134.251 32.2545L133.872 32.125ZM131.722 32.125L131.344 31.9955L131.163 32.525H131.722V32.125ZM138.872 11.225V11.625H141.022V11.225V10.825H138.872V11.225ZM141.022 11.225L140.644 11.0955L133.494 31.9955L133.872 32.125L134.251 32.2545L141.401 11.3545L141.022 11.225ZM133.872 32.125V31.725H131.722V32.125V32.525H133.872V32.125ZM131.722 32.125L132.101 32.2545L139.251 11.3545L138.872 11.225L138.494 11.0955L131.344 31.9955L131.722 32.125ZM154.331 19.75L153.983 19.5532L153.982 19.5557L154.331 19.75ZM152.706 21.725L152.965 22.0304L152.965 22.0298L152.706 21.725ZM150.531 23.425L150.762 23.7514L150.767 23.7482L150.531 23.425ZM148.256 24.925L148.049 24.5827L148.049 24.5829L148.256 24.925ZM145.081 27.775L144.717 27.6106L144.681 27.689V27.775H145.081ZM145.081 27.875H144.681V28.275H145.081V27.875ZM154.731 27.875H155.131V27.475H154.731V27.875ZM154.731 30V30.4H155.131V30H154.731ZM142.781 30H142.381V30.4H142.781V30ZM143.506 26.35L143.171 26.1315L143.17 26.1333L143.506 26.35ZM145.356 24.375L145.12 24.0524L145.116 24.055L145.356 24.375ZM147.781 22.675L148.005 23.0068V23.0068L147.781 22.675ZM150.181 21.075L149.965 20.7388L149.961 20.741L150.181 21.075ZM152.031 19.425L151.721 19.173L151.716 19.1782L152.031 19.425ZM143.531 15.95V16.35H143.651L143.751 16.2839L143.531 15.95ZM143.406 15.95H143.006V16.35H143.406V15.95ZM143.406 13.725L143.218 13.372L143.006 13.4849V13.725H143.406ZM153.331 13.725L153.07 14.0277L153.072 14.03L153.331 13.725ZM154.981 17.375H154.581C154.581 18.1173 154.385 18.8417 153.983 19.5532L154.331 19.75L154.679 19.9468C155.144 19.125 155.381 18.266 155.381 17.375H154.981ZM154.331 19.75L153.982 19.5557C153.589 20.2629 153.078 20.884 152.447 21.4202L152.706 21.725L152.965 22.0298C153.668 21.4326 154.24 20.7371 154.681 19.9443L154.331 19.75ZM152.706 21.725L152.448 21.4196C151.806 21.9625 151.089 22.5233 150.296 23.1018L150.531 23.425L150.767 23.7482C151.573 23.1601 152.306 22.5875 152.965 22.0304L152.706 21.725ZM150.531 23.425L150.3 23.0986C149.507 23.6606 148.756 24.1551 148.049 24.5827L148.256 24.925L148.463 25.2673C149.189 24.8282 149.956 24.3227 150.762 23.7514L150.531 23.425ZM148.256 24.925L148.049 24.5829C146.311 25.6357 145.155 26.6394 144.717 27.6106L145.081 27.775L145.446 27.9394C145.775 27.2106 146.735 26.3143 148.464 25.2671L148.256 24.925ZM145.081 27.775H144.681V27.875H145.081H145.481V27.775H145.081ZM145.081 27.875V28.275H154.731V27.875V27.475H145.081V27.875ZM154.731 27.875H154.331V30H154.731H155.131V27.875H154.731ZM154.731 30V29.6H142.781V30V30.4H154.731V30ZM142.781 30H143.181V28.7H142.781H142.381V30H142.781ZM142.781 28.7H143.181C143.181 27.9673 143.397 27.2583 143.842 26.5667L143.506 26.35L143.17 26.1333C142.649 26.9417 142.381 27.7994 142.381 28.7H142.781ZM143.506 26.35L143.841 26.5685C144.316 25.841 144.9 25.217 145.596 24.695L145.356 24.375L145.116 24.055C144.346 24.633 143.697 25.3256 143.171 26.1315L143.506 26.35ZM145.356 24.375L145.593 24.6976C146.338 24.1511 147.142 23.5875 148.005 23.0068L147.781 22.675L147.558 22.3432C146.687 22.9291 145.875 23.4989 145.12 24.0524L145.356 24.375ZM147.781 22.675L148.005 23.0068C148.87 22.4241 149.669 21.8915 150.401 21.409L150.181 21.075L149.961 20.741C149.227 21.2252 148.425 21.7592 147.558 22.3432L147.781 22.675ZM150.181 21.075L150.398 21.4112C151.18 20.9071 151.832 20.328 152.346 19.6718L152.031 19.425L151.716 19.1782C151.264 19.7553 150.682 20.2763 149.965 20.7388L150.181 21.075ZM152.031 19.425L152.342 19.6769C152.885 19.0075 153.181 18.2963 153.181 17.55H152.781H152.381C152.381 18.0703 152.178 18.6092 151.721 19.1731L152.031 19.425ZM152.781 17.55H153.181C153.181 16.4257 152.818 15.5205 152.041 14.9103C151.282 14.3146 150.189 14.05 148.831 14.05V14.45V14.85C150.107 14.85 150.989 15.1021 151.547 15.5397C152.086 15.9628 152.381 16.6076 152.381 17.55H152.781ZM148.831 14.45V14.05C146.745 14.05 144.9 14.5683 143.311 15.6161L143.531 15.95L143.751 16.2839C145.196 15.3317 146.884 14.85 148.831 14.85V14.45ZM143.531 15.95V15.55H143.406V15.95V16.35H143.531V15.95ZM143.406 15.95H143.806V13.725H143.406H143.006V15.95H143.406ZM143.406 13.725L143.594 14.078C145.317 13.1601 147.194 12.7 149.231 12.7V12.3V11.9C147.068 11.9 145.062 12.3899 143.218 13.372L143.406 13.725ZM149.231 12.3V12.7C150.781 12.7 152.052 13.1483 153.07 14.0277L153.331 13.725L153.593 13.4223C152.411 12.4017 150.948 11.9 149.231 11.9V12.3ZM153.331 13.725L153.072 14.03C154.079 14.8839 154.581 15.9871 154.581 17.375H154.981H155.381C155.381 15.7629 154.784 14.4327 153.59 13.42L153.331 13.725ZM158.904 14.725L158.58 14.4909L158.579 14.4931L158.904 14.725ZM168.979 14.725L169.304 14.4909V14.4909L168.979 14.725ZM168.979 27.825L169.304 28.0591V28.0591L168.979 27.825ZM158.904 27.825L158.579 28.0569L158.58 28.0591L158.904 27.825ZM160.604 26.325L160.266 26.5383L160.268 26.5415L160.604 26.325ZM167.279 26.325L166.943 26.1085L166.941 26.1118L167.279 26.325ZM167.279 16.25L166.941 16.4633L166.943 16.4665L167.279 16.25ZM160.604 16.25L160.268 16.0335L160.266 16.0368L160.604 16.25ZM157.179 21.275H157.579C157.579 18.5769 158.144 16.4842 159.23 14.9569L158.904 14.725L158.579 14.4931C157.365 16.1992 156.779 18.4731 156.779 21.275H157.179ZM158.904 14.725L159.229 14.9591C160.312 13.4576 161.86 12.7 163.929 12.7V12.3V11.9C161.632 11.9 159.83 12.759 158.58 14.4909L158.904 14.725ZM163.929 12.3V12.7C166.016 12.7 167.572 13.4585 168.655 14.9591L168.979 14.725L169.304 14.4909C168.053 12.7581 166.243 11.9 163.929 11.9V12.3ZM168.979 14.725L168.655 14.9591C169.757 16.4861 170.329 18.5779 170.329 21.275H170.729H171.129C171.129 18.4721 170.535 16.1973 169.304 14.4909L168.979 14.725ZM170.729 21.275H170.329C170.329 23.9721 169.757 26.0639 168.655 27.5909L168.979 27.825L169.304 28.0591C170.535 26.3527 171.129 24.0779 171.129 21.275H170.729ZM168.979 27.825L168.655 27.5909C167.572 29.0915 166.016 29.85 163.929 29.85V30.25V30.65C166.243 30.65 168.053 29.7919 169.304 28.0591L168.979 27.825ZM163.929 30.25V29.85C161.86 29.85 160.312 29.0924 159.229 27.5909L158.904 27.825L158.58 28.0591C159.83 29.791 161.632 30.65 163.929 30.65V30.25ZM158.904 27.825L159.23 27.5931C158.144 26.0658 157.579 23.9731 157.579 21.275H157.179H156.779C156.779 24.0769 157.365 26.3508 158.579 28.0569L158.904 27.825ZM160.604 26.325L160.268 26.5415C161.125 27.8728 162.369 28.55 163.954 28.55V28.15V27.75C162.64 27.75 161.65 27.2105 160.941 26.1085L160.604 26.325ZM163.954 28.15V28.55C165.54 28.55 166.777 27.8723 167.618 26.5382L167.279 26.325L166.941 26.1118C166.248 27.211 165.268 27.75 163.954 27.75V28.15ZM167.279 26.325L167.616 26.5415C168.456 25.2365 168.854 23.4758 168.854 21.3H168.454H168.054C168.054 23.3908 167.67 24.9802 166.943 26.1085L167.279 26.325ZM168.454 21.3H168.854C168.854 19.1082 168.456 17.3389 167.616 16.0335L167.279 16.25L166.943 16.4665C167.669 17.5944 168.054 19.1918 168.054 21.3H168.454ZM167.279 16.25L167.618 16.0368C166.777 14.7027 165.54 14.025 163.954 14.025V14.425V14.825C165.268 14.825 166.248 15.364 166.941 16.4632L167.279 16.25ZM163.954 14.425V14.025C162.369 14.025 161.125 14.7022 160.268 16.0335L160.604 16.25L160.941 16.4665C161.65 15.3645 162.64 14.825 163.954 14.825V14.425ZM160.604 16.25L160.266 16.0368C159.444 17.3415 159.054 19.1094 159.054 21.3H159.454H159.854C159.854 19.1906 160.232 17.5919 160.943 16.4632L160.604 16.25ZM159.454 21.3H159.054C159.054 23.4746 159.444 25.2339 160.266 26.5382L160.604 26.325L160.943 26.1118C160.231 24.9827 159.854 23.3921 159.854 21.3H159.454Z" fill="#163AF2" mask="url(#path-1-outside-1_389_310)"/>
</svg>
