<svg width="176" height="44" viewBox="0 0 176 44" fill="none" xmlns="http://www.w3.org/2000/svg">
<path d="M13.061 15.0464C11.6369 15.0464 10.5342 15.5835 9.75293 16.6577C8.97168 17.7238 8.58105 19.2131 8.58105 21.1255C8.58105 25.105 10.0744 27.0947 13.061 27.0947C14.3143 27.0947 15.832 26.7814 17.6143 26.1548V29.3286C16.1494 29.939 14.5137 30.2441 12.707 30.2441C10.111 30.2441 8.12533 29.4588 6.75 27.8882C5.37467 26.3094 4.68701 24.047 4.68701 21.1011C4.68701 19.2456 5.02474 17.6221 5.7002 16.2305C6.37565 14.8307 7.34408 13.7606 8.60547 13.02C9.875 12.2713 11.3602 11.897 13.061 11.897C14.7944 11.897 16.536 12.3161 18.2856 13.1543L17.0649 16.2305C16.3976 15.9131 15.7262 15.6364 15.0508 15.4004C14.3753 15.1644 13.7121 15.0464 13.061 15.0464ZM27.5576 30H23.7734V15.3027H18.9272V12.1533H32.4038V15.3027H27.5576V30ZM48.4751 12.1533L42.9575 24.7754C42.2658 26.3623 41.6147 27.5016 41.0044 28.1934C40.4022 28.8851 39.686 29.4019 38.856 29.7437C38.0259 30.0773 37.0168 30.2441 35.8286 30.2441C34.8114 30.2441 33.8633 30.1221 32.9844 29.8779V26.6309C33.7005 26.9238 34.5916 27.0703 35.6577 27.0703C36.3332 27.0703 36.8784 26.9157 37.2935 26.6064C37.7085 26.2891 38.0544 25.7438 38.3311 24.9707L32.1543 12.1533H36.1582L40.5527 22.1021H40.6748L40.8945 21.4917L44.5811 12.1533H48.4751ZM46.6143 26.8506H47.9937C49.1737 24.4906 50.1055 22.1346 50.7891 19.7827C51.4727 17.4227 51.9813 14.8796 52.3149 12.1533H62.7153V26.8506H65.0957V35.2002H61.4458V30H50.2642V35.2002H46.6143V26.8506ZM55.3179 15.3027C55.0575 17.1663 54.6221 19.1398 54.0117 21.2231C53.4095 23.3065 52.73 25.1823 51.9731 26.8506H58.9434V15.3027H55.3179ZM67.1045 12.1533H70.5103V20.7715L70.4614 23.0786L70.3394 25.7031H70.4126L78.6523 12.1533H83.1812V30H79.812V21.4307C79.812 20.2832 79.8853 18.5824 80.0317 16.3281H79.9341L71.6577 30H67.1045V12.1533ZM92.9414 23.1519L88.7666 30H84.5674L89.6455 22.1509C88.6364 21.744 87.8633 21.1174 87.3262 20.271C86.7891 19.4165 86.5205 18.4115 86.5205 17.2559C86.5205 15.6201 87.0983 14.3628 88.2539 13.4839C89.4176 12.5968 91.0859 12.1533 93.2588 12.1533H99.0693V30H95.2852V23.1519H92.9414ZM95.2852 15.2539H93.4175C92.4409 15.2539 91.6841 15.4289 91.147 15.7788C90.6099 16.1287 90.3413 16.7106 90.3413 17.5244C90.3413 18.3138 90.6017 18.9364 91.1226 19.3921C91.6434 19.8478 92.4409 20.0757 93.5151 20.0757H95.2852V15.2539ZM116.637 30H112.865V19.6729L112.901 17.9761L112.962 16.1206C112.336 16.7472 111.9 17.1582 111.656 17.3535L109.605 19.0015L107.787 16.731L113.536 12.1533H116.637V30ZM133.318 30H120.843V27.3755L125.323 22.8467C126.649 21.4876 127.516 20.5477 127.923 20.0269C128.33 19.4979 128.623 19.0096 128.802 18.562C128.981 18.1144 129.07 17.6506 129.07 17.1704C129.07 16.4543 128.871 15.9212 128.472 15.5713C128.082 15.2214 127.557 15.0464 126.897 15.0464C126.206 15.0464 125.534 15.2051 124.883 15.5225C124.232 15.8398 123.553 16.2915 122.845 16.8774L120.794 14.4482C121.673 13.6995 122.401 13.1706 122.979 12.8613C123.557 12.5521 124.188 12.3161 124.871 12.1533C125.555 11.9824 126.32 11.897 127.166 11.897C128.281 11.897 129.266 12.1004 130.12 12.5073C130.975 12.9142 131.638 13.4839 132.11 14.2163C132.582 14.9487 132.818 15.7869 132.818 16.731C132.818 17.5529 132.671 18.326 132.378 19.0503C132.094 19.7664 131.646 20.5029 131.036 21.2598C130.433 22.0166 129.367 23.0949 127.837 24.4946L125.542 26.6553V26.8262H133.318V30ZM143.579 12.1533L136.926 30H133.545L140.198 12.1533H143.579ZM156.428 30H143.952V27.3755L148.432 22.8467C149.759 21.4876 150.625 20.5477 151.032 20.0269C151.439 19.4979 151.732 19.0096 151.911 18.562C152.09 18.1144 152.18 17.6506 152.18 17.1704C152.18 16.4543 151.98 15.9212 151.582 15.5713C151.191 15.2214 150.666 15.0464 150.007 15.0464C149.315 15.0464 148.644 15.2051 147.993 15.5225C147.342 15.8398 146.662 16.2915 145.954 16.8774L143.903 14.4482C144.782 13.6995 145.511 13.1706 146.088 12.8613C146.666 12.5521 147.297 12.3161 147.98 12.1533C148.664 11.9824 149.429 11.897 150.275 11.897C151.39 11.897 152.375 12.1004 153.229 12.5073C154.084 12.9142 154.747 13.4839 155.219 14.2163C155.691 14.9487 155.927 15.7869 155.927 16.731C155.927 17.5529 155.781 18.326 155.488 19.0503C155.203 19.7664 154.755 20.5029 154.145 21.2598C153.543 22.0166 152.477 23.0949 150.947 24.4946L148.652 26.6553V26.8262H156.428V30ZM169.862 21.0767C169.862 24.1935 169.35 26.5007 168.324 27.998C167.307 29.4954 165.736 30.2441 163.612 30.2441C161.553 30.2441 159.999 29.471 158.949 27.9248C157.908 26.3786 157.387 24.0959 157.387 21.0767C157.387 17.9272 157.895 15.6079 158.913 14.1187C159.93 12.6213 161.496 11.8726 163.612 11.8726C165.671 11.8726 167.226 12.6538 168.275 14.2163C169.333 15.7788 169.862 18.0656 169.862 21.0767ZM161.134 21.0767C161.134 23.2658 161.321 24.8364 161.696 25.7886C162.078 26.7326 162.717 27.2046 163.612 27.2046C164.491 27.2046 165.126 26.7244 165.517 25.7642C165.907 24.8039 166.103 23.2414 166.103 21.0767C166.103 18.8875 165.903 17.3169 165.504 16.3647C165.114 15.4045 164.483 14.9243 163.612 14.9243C162.725 14.9243 162.09 15.4045 161.708 16.3647C161.326 17.3169 161.134 18.8875 161.134 21.0767Z" fill="#304BD9"/>
</svg>
