<svg width="197" height="40" viewBox="0 0 197 40" fill="none" xmlns="http://www.w3.org/2000/svg">
<g clip-path="url(#clip0_292_41)">
<path d="M69.3899 10.5243V12.5411C68.2364 11.0389 66.1018 10.0097 63.6258 10.0097C57.7773 10.0097 53.4219 15.2007 53.4219 21.2944C53.4219 27.3882 57.7342 32.5792 63.6258 32.5792C66.1018 32.5792 68.2364 31.5915 69.3899 30.0044V32.0212H76.6902V10.5243H69.3899V10.5243ZM79.2111 1V32.0194H86.7684V20.5632C86.7684 18.3315 87.8357 17.0026 89.5444 17.0026C91.2532 17.0026 92.1498 18.1618 92.1498 20.3068V32.0194H99.707V18.5049C99.707 13.2706 96.8897 10.0097 92.3636 10.0097C89.9307 10.0097 88.0513 10.954 86.7271 12.6278V1H79.2129H79.2111ZM148.335 21.2944C148.335 27.7294 143.425 32.5792 136.893 32.5792C130.362 32.5792 125.451 27.7313 125.451 21.2944C125.451 14.8576 130.362 10.0097 136.893 10.0097C143.425 10.0097 148.335 14.8576 148.335 21.2944ZM124.168 21.2944C124.168 27.7294 119.258 32.5792 112.727 32.5792C106.195 32.5792 101.285 27.7313 101.285 21.2944C101.285 14.8576 106.195 10.0097 112.727 10.0097C119.258 10.0097 124.168 14.8576 124.168 21.2944ZM29 10.5243L38.1366 32.191L34.8485 40H42.8748L55.0444 10.5243H47.0595L42.1075 23.1379L37.1969 10.5243H29ZM65.1639 25.7126C62.6448 25.7126 60.724 23.7825 60.724 21.2926C60.724 18.8028 62.6448 16.8726 65.1639 16.8726C67.683 16.8726 69.5624 18.8028 69.5624 21.2926C69.5624 23.7825 67.6416 25.7126 65.1639 25.7126ZM116.997 21.2926C116.997 18.8894 115.204 16.9593 112.728 16.9593C110.252 16.9593 108.459 18.8894 108.459 21.2926C108.459 23.6958 110.252 25.626 112.728 25.626C115.204 25.626 116.997 23.6958 116.997 21.2926V21.2926ZM141.164 21.2926C141.164 18.8894 139.371 16.9593 136.895 16.9593C134.419 16.9593 132.626 18.8894 132.626 21.2926C132.626 23.6958 134.419 25.626 136.895 25.626C139.371 25.626 141.164 23.6958 141.164 21.2926V21.2926ZM149.277 27.4712C149.277 30.1742 151.368 32.4058 154.187 32.4058C157.006 32.4058 159.269 30.0893 159.269 27.2997C159.269 24.5101 157.177 22.3651 154.358 22.3651C151.539 22.3651 149.277 24.725 149.277 27.4712ZM160.034 1L152.008 20.4783H160.974L169 1H160.034Z" fill="#151515"/>
</g>
<defs>
<clipPath id="clip0_292_41">
<rect width="140" height="39" fill="white" transform="translate(29 1)"/>
</clipPath>
</defs>
</svg>
