<svg width="181" height="38" viewBox="0 0 181 38" fill="none" xmlns="http://www.w3.org/2000/svg">
<path d="M78.3871 15V9.36283H74.6129V15H70V0H74.6129V6.02592H78.3871V0H83V15H78.3871Z" fill="#151515"/>
<path d="M94.3351 14.2964C93.5225 14.7442 92.515 15 90.9875 15C85.3 15 84 12.2495 84 7.57994V0H88.6475V7.57994C88.6475 11.4499 89.59 11.7058 90.89 11.7058C91.7025 11.6738 92.2875 11.6098 92.7101 11.4179C93.4251 10.9702 93.6851 9.91472 93.6851 7.57994V0H97V7.57994C97 9.81875 97.0001 12.9211 94.3351 14.2964Z" fill="#151515"/>
<path d="M108.407 15L101.435 6.31749V15H98V0H102.109L107.531 6.70626V0H111V15H108.407Z" fill="#151515"/>
<path d="M120.232 15H115.705V3.30453H112V0H124V3.30453H120.264V15H120.232Z" fill="#151515"/>
<path d="M135.629 15H126V0H137L135.662 3.30453H130.668V6.05831H134.813L133.508 9.36283H130.668V11.663H136.968L135.629 15Z" fill="#151515"/>
<path d="M144.309 0C146.529 0 147.924 0.874729 148.717 1.58747C149.763 2.59179 150.366 3.92009 150.366 5.31317C150.366 6.67386 149.827 7.96979 148.812 8.87691C148.59 9.07126 148.368 9.23328 148.146 9.39523L151 14.9676H146.022L143.612 10.3347H142.534V15H138V0H144.309ZM145.736 6.57667C145.99 6.28509 146.148 5.83153 146.148 5.37797C146.148 3.7257 144.943 3.30453 144.309 3.30453H142.534V7.03023H144.595C145.134 7.03023 145.514 6.90064 145.736 6.57667Z" fill="#151515"/>
<path d="M80.0781 35H75.2901V28.7338L70 20H75.2232L78.1362 25.2922L81.0826 20H85L80.1116 28.7662V35H80.0781Z" fill="#151515"/>
<path d="M95.6291 35H86V20H97L95.6618 23.3045H90.6677V26.0583H94.8131L93.5074 29.3629H90.6677V31.6631H96.9674L95.6291 35Z" fill="#151515"/>
<path d="M108.522 32.2463H102.109L100.774 35H97L104.28 20H107.854L115 35H109.857L108.522 32.2463ZM103.679 28.9093H106.919L105.316 25.5724L103.679 28.9093Z" fill="#151515"/>
<path d="M125.407 35L118.435 26.3175V35H115V20H119.108L124.531 26.7063V20H128V35H125.407Z" fill="#151515"/>
<path d="M139.079 35H134.29V28.7338L129 20H134.224L137.137 25.2922L140.083 20H144L139.112 28.7662V35H139.079Z" fill="#151515"/>
<path d="M60 0V3.15844H56.9096V34.8416H35.2129V38H32.1225V25.3333H47.6064V15.8251H41.3936V22.1749H32.1225V3.15844H29V0H41.3936V6.31688H47.6064V0H60Z" fill="#151515"/>
</svg>
