<svg width="171" height="34" viewBox="0 0 171 34" fill="none" xmlns="http://www.w3.org/2000/svg">
<path d="M69.013 13V13.3785C69.013 13.2482 69.013 13.1308 69 13H69.013Z" fill="#151515"/>
<path d="M103.107 0.626696V33.4125H93.4541C93.2087 33.4125 92.9758 33.3997 92.7692 33.3735C91.1539 33.2299 90.2364 32.4337 89.797 29.1708C87.9235 30.9068 85.8432 32.5253 83.1423 33.3735L83.1294 33.3866C83.065 33.3997 83.0002 33.4125 82.9228 33.4389C81.7469 33.7912 80.4418 33.9999 78.9946 33.9999C77.5859 33.9999 76.2422 33.8304 75.0275 33.4389C72.8179 32.7209 71.0992 31.2201 70.1818 28.6226C70.1044 28.701 69.9752 28.8054 69.7941 28.9621C69.6909 29.0664 69.5746 29.1577 69.471 29.2624C67.6232 30.959 65.5686 32.5381 62.907 33.3866C62.8422 33.3997 62.7775 33.4125 62.7001 33.4389C61.5113 33.7912 60.2062 33.9999 58.7718 33.9999C57.3505 33.9999 56.0065 33.8304 54.8048 33.4389C51.6392 32.4206 49.4293 29.8364 49.2486 24.6419V13.1826C49.2486 13.0258 49.2486 12.8953 49.2356 12.7518C49.1065 10.755 47.9691 10.3243 45.6047 10.3243C44.5709 10.3243 43.5111 10.5068 42.7229 10.6896V33.4389H29V0.626696H38.7172C40.7458 0.626696 41.9219 1.30517 42.4 5.2207C44.2089 3.4068 46.4315 1.71007 49.2356 0.770294C49.3775 0.71798 49.52 0.665665 49.6748 0.626696C50.9799 0.235143 52.4144 0 53.978 0C55.425 0 56.7689 0.183097 57.9577 0.626696C60.8005 1.64468 62.726 4.08554 62.8941 8.83625V21.0659C62.8941 21.2223 62.8941 21.3789 62.907 21.5095C63.0621 23.6109 64.341 24.0544 66.706 24.0544C67.6232 24.0544 68.683 23.8588 69.471 23.6239V0.626696H83.1423V21.5877C83.2845 23.1931 84.1245 23.7934 85.6233 23.9762C86.0242 24.0286 86.4504 24.0544 86.9285 24.0544C87.8588 24.0544 88.9055 23.8588 89.7066 23.6239V0.626696H103.107Z" fill="#151515"/>
<path d="M142.001 0.621704V33.4405H132.339C130.247 33.4405 129.139 32.8814 128.647 28.9654C125.877 31.576 122.616 34 117.632 34C112.339 34 108.093 31.7003 108.093 23.9306V0.621704H121.754V21.0713C121.754 23.5576 123.047 24.0548 125.57 24.0548C126.493 24.0548 127.539 23.8682 128.339 23.62V0.621704H142.001Z" fill="#151515"/>
</svg>
