<svg width="176" height="44" viewBox="0 0 176 44" fill="none" xmlns="http://www.w3.org/2000/svg">
<path d="M17.3351 25.4948C17.665 24.9566 17.9167 24.2708 18.0903 23.4375L21.1632 24.375C20.7987 25.5729 20.2778 26.6146 19.6007 27.5C18.9237 28.3854 18.0903 29.0712 17.1007 29.5573C16.0591 30.1128 14.8872 30.3906 13.5851 30.3906C12.283 30.3906 11.1025 30.1128 10.0435 29.5573C8.58512 28.8281 7.45665 27.6389 6.65804 25.9896C5.85943 24.3403 5.46012 22.5434 5.46012 20.599C5.46012 18.6545 5.85943 16.8663 6.65804 15.2344C7.45665 13.5851 8.58512 12.4045 10.0435 11.6927C11.1025 11.1372 12.283 10.8594 13.5851 10.8594C14.8872 10.8594 16.0591 11.1372 17.1007 11.6927C18.1424 12.1962 19.0192 12.9514 19.731 13.9583C20.4601 14.9479 20.9723 16.0677 21.2674 17.3177L21.2935 17.3698L18.1164 17.9427C17.9428 17.0747 17.6823 16.3455 17.3351 15.7552C16.9358 15.0608 16.3976 14.5312 15.7205 14.1667C15.0608 13.7847 14.349 13.5937 13.5851 13.5937C12.8212 13.5937 12.1007 13.7847 11.4237 14.1667C10.7466 14.5312 10.2084 15.0608 9.80908 15.7552C9.46186 16.3281 9.20144 17.0486 9.02783 17.9167C8.85422 18.7674 8.76742 19.6788 8.76742 20.651C8.76742 21.5885 8.85422 22.4913 9.02783 23.3594C9.20144 24.2101 9.46186 24.9219 9.80908 25.4948C10.2084 26.1892 10.7466 26.7274 11.4237 27.1094C12.1007 27.474 12.8212 27.6562 13.5851 27.6562C14.349 27.6562 15.0695 27.474 15.7466 27.1094C16.4237 26.7448 16.9532 26.2066 17.3351 25.4948ZM35.9113 11.25V14.401H30.4425V30H27.3175V14.401H21.8488V11.25H35.9113ZM40.8823 11.25L44.2677 20.9375L47.2104 11.25H50.3094L46.2209 24.6354C45.5785 26.7187 44.7365 28.2118 43.6948 29.1146C42.6532 30 41.2035 30.4253 39.3459 30.3906V27.4219C40.2834 27.4219 40.9778 27.3003 41.4292 27.0573C41.8806 26.7969 42.2973 26.2934 42.6792 25.5469L37.7573 11.25H40.8823ZM68.2443 27.3437V32.6302H65.1453V30H53.7131V32.6302H50.6141V27.3437H51.812C53.253 25.9375 54.0603 24.349 54.2339 22.5781L55.3797 11.25H66.6818V27.3437H68.2443ZM63.5828 13.9323H57.9839L57.1766 22.9167C57.0377 24.4097 56.5169 25.8854 55.6141 27.3437H63.5828V13.9323ZM73.741 11.25V24.6615L81.0588 11.25H84.6785V30H81.5275V16.5885L74.1577 30H70.616V11.25H73.741ZM96.1763 23.75H93.1554L90.1086 30H86.8013L90.0565 23.3073C89.0148 22.8733 88.2075 22.1354 87.6346 21.0937C87.079 20.0521 86.8013 18.8281 86.8013 17.4219C86.8013 15.599 87.2787 14.1146 88.2336 12.9687C89.2058 11.8229 90.56 11.25 92.2961 11.25H99.1711V30H96.1763V23.75ZM93.0252 13.9844C92.0356 13.9844 91.2718 14.2882 90.7336 14.8958C90.1954 15.5035 89.9263 16.3628 89.9263 17.474C89.9263 18.6024 90.1867 19.4792 90.7075 20.1042C91.2457 20.7292 92.0183 21.0417 93.0252 21.0417H96.1763V13.9844H93.0252ZM110.874 11.25H114.494V30H111.343V14.4271L108.062 16.4062L106.525 13.8542L110.874 11.25ZM128.083 19.8698C127.285 20.7552 126.173 21.9792 124.75 23.5417C123.344 25.0868 122.328 26.1979 121.703 26.875H128.995V30H118.083V26.4323C118.864 25.5816 120.305 24.0017 122.406 21.6927C124.524 19.3837 125.635 18.1597 125.739 18.0208C126.139 17.5521 126.338 16.9618 126.338 16.25C126.338 16.0417 126.33 15.8854 126.312 15.7812C126.278 15.0694 126 14.5399 125.479 14.1927C124.976 13.8281 124.333 13.6458 123.552 13.6458C122.719 13.6458 122.05 13.8455 121.547 14.2448C121.043 14.6441 120.826 15.2257 120.896 15.9896H117.64C117.814 14.3403 118.43 13.0903 119.489 12.2396C120.548 11.3715 121.903 10.9375 123.552 10.9375C125.114 10.9375 126.399 11.3368 127.406 12.1354C128.43 12.9167 129.038 14.0104 129.229 15.4167C129.264 15.7986 129.281 16.0851 129.281 16.276C129.281 16.9358 129.177 17.5781 128.969 18.2031C128.778 18.8281 128.482 19.3837 128.083 19.8698ZM131.384 30L136.41 11.25H139.483L134.457 30H131.384ZM151.51 19.8698C150.711 20.7552 149.6 21.9792 148.177 23.5417C146.77 25.0868 145.755 26.1979 145.13 26.875H152.421V30H141.51V26.4323C142.291 25.5816 143.732 24.0017 145.833 21.6927C147.951 19.3837 149.062 18.1597 149.166 18.0208C149.565 17.5521 149.765 16.9618 149.765 16.25C149.765 16.0417 149.756 15.8854 149.739 15.7812C149.704 15.0694 149.427 14.5399 148.906 14.1927C148.402 13.8281 147.76 13.6458 146.979 13.6458C146.145 13.6458 145.477 13.8455 144.973 14.2448C144.47 14.6441 144.253 15.2257 144.322 15.9896H141.067C141.241 14.3403 141.857 13.0903 142.916 12.2396C143.975 11.3715 145.329 10.9375 146.979 10.9375C148.541 10.9375 149.826 11.3368 150.833 12.1354C151.857 12.9167 152.465 14.0104 152.656 15.4167C152.69 15.7986 152.708 16.0851 152.708 16.276C152.708 16.9358 152.604 17.5781 152.395 18.2031C152.204 18.8281 151.909 19.3837 151.51 19.8698ZM165.28 29.0885C164.221 29.9566 162.927 30.3906 161.4 30.3906C159.854 30.3906 158.552 29.9566 157.493 29.0885C156.452 28.2205 155.662 27.0486 155.124 25.5729C154.603 24.0972 154.325 22.4392 154.29 20.599C154.325 18.7934 154.603 17.1615 155.124 15.7031C155.644 14.2274 156.434 13.0556 157.493 12.1875C158.552 11.3021 159.854 10.8594 161.4 10.8594C162.927 10.8594 164.221 11.2934 165.28 12.1615C166.339 13.0295 167.137 14.2014 167.676 15.6771C168.214 17.1354 168.5 18.776 168.535 20.599C168.5 22.4219 168.214 24.0712 167.676 25.5469C167.137 27.0226 166.339 28.2031 165.28 29.0885ZM157.571 20.599C157.641 25.3038 158.917 27.6562 161.4 27.6562C162.823 27.6562 163.804 27.0139 164.342 25.7292C164.88 24.4444 165.184 22.7344 165.254 20.599C165.184 18.4462 164.88 16.7535 164.342 15.5208C163.804 14.2708 162.823 13.6198 161.4 13.5677C159.993 13.6198 159.004 14.2882 158.431 15.5729C157.875 16.8576 157.589 18.533 157.571 20.599Z" fill="#304BD9"/>
</svg>
