<svg width="202" height="34" viewBox="0 0 202 34" fill="none" xmlns="http://www.w3.org/2000/svg">
<path d="M46.7295 10.7172L43 14.4467L32.5533 4L29 7.55333L39.4467 18L29 28.4467L32.5533 32L43 21.5526L53.4467 31.9992L57 28.4459L46.5533 18L50.2828 14.2697C48.7163 13.5419 47.4577 12.2835 46.7295 10.7172Z" fill="#151515"/>
<path d="M52.9995 5.38928e-08C51.8242 0.000388891 50.6679 0.296636 49.6372 0.861436C48.6064 1.42624 47.7345 2.24142 47.1017 3.23184C46.4688 4.22226 46.0955 5.35606 46.016 6.52872C45.9365 7.70136 46.1535 8.8752 46.647 9.94195L53.0932 3.49538L56.5032 6.90549L50.0576 13.3513C51.0078 13.7916 52.0446 14.013 53.0918 13.9994C54.1389 13.9857 55.1696 13.7372 56.1079 13.2723C57.0463 12.8074 57.8683 12.1378 58.5135 11.3129C59.1587 10.4881 59.6107 9.52901 59.8361 8.50629C60.0614 7.48358 60.0544 6.42334 59.8156 5.40368C59.5768 4.38403 59.1122 3.43096 58.4562 2.61469C57.8002 1.79842 56.9693 1.13976 56.0249 0.687236C55.0806 0.234718 54.0467 -0.000129887 52.9995 5.38928e-08Z" fill="#151515"/>
<path d="M74.4201 7.04062H80.5784V12H83V0H80.5784V5.00001H74.4201V0H72V12H74.4201V7.04062Z" fill="#151515"/>
<path d="M89.021 3C85.9535 3 84 4.83885 84 7.96905C84 11.0806 85.8488 13 89.021 13C92.1513 13 94 11.0806 94 7.96905C94 4.83958 92.0466 3 89.021 3ZM89 11.1202C87.1094 11.1202 86.2685 9.90934 86.2685 7.94895C86.2685 5.9885 87.1723 4.83885 89 4.83885C90.8278 4.83885 91.7517 5.98994 91.7517 7.94895C91.7517 9.90793 90.8697 11.1209 89 11.1209V11.1202Z" fill="#151515"/>
<path d="M105 12.7302V3H102.713V8.50566C102.713 9.97482 101.717 10.9692 100.172 10.9692C98.8148 10.9692 98.2869 10.0986 98.2869 8.91992V3.00295H96V9.50154C96 11.6127 96.9955 13 99.0922 13C100.744 13 102.015 11.968 102.561 10.1635H102.773V12.7302H105Z" fill="#151515"/>
<path d="M110.485 7.14337C108.757 6.82025 108.369 6.3518 108.369 5.68835C108.369 4.981 108.912 4.55717 109.98 4.55717C111.068 4.55717 111.611 5.00115 111.864 6.17263L113.748 5.74951C113.379 4.07146 112.524 3 110.019 3C107.592 3 106.388 4.09088 106.388 5.80637C106.388 7.38224 107.243 8.23209 109.67 8.73576C111.476 9.07973 111.981 9.44313 111.981 10.1915C111.981 10.9995 111.398 11.404 110.291 11.404C108.815 11.404 108.174 10.6765 107.883 9.52518L106 9.9281C106.33 11.7465 107.3 13 110.252 13C112.875 13 114 11.8681 114 10.1109C114 8.61847 113.184 7.66794 110.485 7.14337Z" fill="#151515"/>
<path d="M116.45 9.67505C116.45 11.5505 117.415 13 119.675 13C120.705 13 121.232 12.8718 122 12.6373L121.716 10.5919C121.21 10.7437 120.75 10.8469 120.223 10.8469C119.192 10.8469 118.816 10.3361 118.816 9.35479V4.56052H121.844V2.70717H118.816V0H116.447V2.70717H115V4.56052H116.447L116.45 9.67505Z" fill="#151515"/>
<path d="M133 7.96905C133 4.83885 131.047 3 128.022 3C124.954 3 123 4.83885 123 7.96905C123 11.0806 124.849 13 128.022 13C131.152 12.9993 133 11.0806 133 7.96905ZM125.27 7.94896C125.27 5.98993 126.173 4.83885 128.001 4.83885C129.828 4.83885 130.752 5.98993 130.752 7.94896C130.752 9.90794 129.87 11.1202 128.001 11.1202C126.109 11.1202 125.27 9.90934 125.27 7.94896Z" fill="#151515"/>
<path d="M137.276 7.47998C137.276 6.00784 138.295 5.01138 139.823 5.01138C141.202 5.01138 141.733 5.88301 141.733 7.06486V12.997H144V6.48428C144 4.36948 143.002 3 140.923 3C139.246 3 137.976 4.0164 137.42 5.8217H137.229V3.24967H135V13H137.273L137.276 7.47998Z" fill="#151515"/>
<path d="M72 31H80.9793V29.02H74.3689V25.9003H80.3767V23.9402H74.3689V20.9807H81V19H72V31Z" fill="#151515"/>
<path d="M91.9139 21.2327V21H89.4733L87.2704 25.127H87.0112L84.6567 21H82.0223V21.2327L85.2621 25.8083L82 30.7658V31H84.5491L86.7304 26.7866H87.0327L89.3872 31H92V30.7658L88.7603 26.1281L91.9139 21.2327Z" fill="#151515"/>
<path d="M98.5351 21C96.8307 21 95.7872 22.0865 95.2857 23.7485H95.1428V21.2497H93V34H95.1428V28.3211H95.2857C95.7471 30.0006 96.85 31.1507 98.5717 31.1507C100.698 31.1507 102 29.366 102 26.0859C102 22.8058 100.761 21 98.5351 21ZM97.5523 29.2025C96.1078 29.2025 95.1457 28.0955 95.1457 26.4752V25.7369C95.1457 24.0574 96.0886 22.9891 97.5743 22.9891C99.1588 22.9891 99.8809 23.9938 99.8809 26.0859C99.8796 28.1561 99.1368 29.2025 97.5523 29.2025Z" fill="#151515"/>
<path d="M108.021 21C104.953 21 103 22.8394 103 25.9695C103 29.0807 104.848 31 108.021 31C111.151 31 113 29.0807 113 25.9695C113 22.8394 111.046 21 108.021 21ZM108 29.1203C106.109 29.1203 105.268 27.9096 105.268 25.9493C105.268 23.989 106.172 22.8394 108 22.8394C109.828 22.8394 110.752 23.9905 110.752 25.9493C110.752 27.9081 109.869 29.1203 108 29.1203Z" fill="#151515"/>
<path d="M120.922 21C119.245 21 117.974 22.0161 117.419 23.8208H117.229V21.2526H115V31H117.272V25.4794C117.272 24.0077 118.29 23.0115 119.818 23.0115C121.198 23.0115 121.728 23.8829 121.728 25.0644V30.9948H124V24.484C124 22.3691 123.002 21 120.922 21Z" fill="#151515"/>
<path d="M129.759 21C126.807 21 125 22.9031 125 26.1218C125 29.3002 126.867 31 129.759 31C132.289 31 133.477 29.8264 133.915 28.1057L132.072 27.5787C131.811 28.4899 131.285 29.2195 129.784 29.2195C128.177 29.2195 127.314 28.3479 127.153 26.6243H133.961C134 26.1391 134 25.7138 134 25.3483C133.996 22.7416 132.61 21 129.759 21ZM127.169 25.1703C127.369 23.4697 128.233 22.6803 129.7 22.6803C131.205 22.6803 131.928 23.531 132.008 25.1703H127.169Z" fill="#151515"/>
<path d="M141.924 21C140.247 21 138.975 22.0161 138.421 23.8208H138.23V21.2526H136V31H138.269V25.4794C138.269 24.0077 139.288 23.0115 140.817 23.0115C142.198 23.0115 142.728 23.8829 142.728 25.0644V30.9948H145V24.484C145.003 22.3691 144.005 21 141.924 21Z" fill="#151515"/>
<path d="M151.221 29.8443C150.19 29.8443 149.814 29.3329 149.814 28.3526V23.5594H152.842V21.7088H149.814V19H147.448V21.7088H146V23.5624H147.448V28.6751C147.448 30.55 148.413 32 150.674 32C151.705 32 152.232 31.8717 153 31.6373L152.716 29.5924C152.208 29.7381 151.746 29.8443 151.221 29.8443Z" fill="#151515"/>
<path d="M157 18H155V20H157V18Z" fill="#151515"/>
<path d="M157 21H155V31H157V21Z" fill="#151515"/>
<path d="M163.813 21C161.223 21 159.776 22.1601 159.388 23.9728L161.59 24.4419C161.85 23.321 162.542 22.7496 163.726 22.7496C165.152 22.7496 165.692 23.4623 165.692 24.7073V25.3598H162.669C160.1 25.3598 159 26.6025 159 28.3123C159 30.1851 160.274 31 162.087 31C163.878 31 165.044 30.064 165.562 28.516H165.8V30.7963H168V24.6848C168 22.3029 166.749 21 163.813 21ZM165.694 27.1891C165.694 28.3898 164.617 29.286 162.995 29.286C161.678 29.286 161.227 28.6958 161.227 28.0033C161.227 27.2094 161.895 26.8019 163.061 26.8019H165.694V27.1891Z" fill="#151515"/>
<path d="M172 18H170V31H172V18Z" fill="#151515"/>
</svg>
