<svg width="176" height="44" viewBox="0 0 176 44" fill="none" xmlns="http://www.w3.org/2000/svg">
<g opacity="0.9">
<path d="M4.69328 20.8056C4.69328 25.6667 6.92969 27.3333 9.58543 27.3333C12.2412 27.3333 13.7787 25.9444 14.0583 23.3056H18.2515C18.1118 27.0556 15.3442 30.25 9.58543 30.25C3.57507 30.25 0.5 26.2222 0.5 20.8056C0.5 15.3889 3.57507 11.3611 9.58543 11.3611C15.3162 11.3611 18.1118 14.5556 18.2515 18.3056H14.0583C13.7787 15.8056 12.2412 14.2778 9.58543 14.2778C6.92969 14.2778 4.69328 15.9444 4.69328 20.8056Z" fill="#1A38D5"/>
<path d="M34.0331 11.7778V14.8333H27.7432V29.8333H23.9692V14.8333H17.6793V11.7778H34.0331Z" fill="#1A38D5"/>
<path d="M52.204 11.7778L45.2152 26.3611C43.8174 29.3056 42.2799 30.1111 39.9037 30.1111C38.5059 30.1111 37.3877 29.8333 37.3877 29.8333V26.6944C37.3877 26.6944 38.5059 26.9167 39.3446 26.9167C40.323 26.9167 41.1337 26.6667 41.581 25.6667L33.8933 11.7778H38.2264L43.454 21.5L47.8709 11.7778H52.204Z" fill="#1A38D5"/>
<path d="M53.1879 34H49.4139V26.7778H49.8333C51.9299 26.7778 53.4674 25.6667 53.4674 16.0833V11.7778H66.7461V26.7778H69.2621V34H65.4882V29.8333H53.1879V34ZM62.9722 14.8333H57.1016V16.3611C57.1016 23.9444 56.2629 25.5278 55.005 26.7778H62.9722V14.8333Z" fill="#1A38D5"/>
<path d="M82.4076 17.3333L73.4619 29.8333H69.688V11.7778H73.4619V24.2778L82.4076 11.7778H86.1815V29.8333H82.4076V17.3333Z" fill="#1A38D5"/>
<path d="M91.0846 29.8333H86.472L91.3362 22.3333C88.7644 21.7222 87.0311 20.0833 87.0311 17.1944C87.0311 13.4444 89.9664 11.7778 93.8801 11.7778H102.686V29.8333H98.9121V22.6111H95.5295L91.0846 29.8333ZM98.9121 19.5556V14.8333H93.7404C92.2028 14.8333 91.2244 15.6667 91.2244 17.1944C91.2244 18.7222 92.2028 19.5556 93.7404 19.5556H98.9121Z" fill="#1A38D5"/>
<path d="M114.715 29.8333H110.942V16.7778H107.727V14.6944H108.146C110.802 14.6944 112.06 13.1667 112.339 11.7778H114.715V29.8333Z" fill="#1A38D5"/>
<path d="M130.784 29.8333H115.688V26.7778C123.795 20.9444 126.591 20.1111 126.591 17.0556C126.591 15.3889 125.193 14.2778 123.236 14.2778C121.839 14.2778 119.882 14.9722 119.882 17.4722V18.3056H115.688V17.4722C115.688 13.1667 119.798 11.3611 123.292 11.3611C127.625 11.3611 130.784 13.3056 130.784 17.0556C130.784 21.2222 126.032 23.4444 120.301 26.7778H130.784V29.8333Z" fill="#1A38D5"/>
<path d="M142.046 10L134.61 29.8333H130.836L138.272 10H142.046Z" fill="#1A38D5"/>
<path d="M157.144 29.8333H142.048V26.7778C150.155 20.9444 152.951 20.1111 152.951 17.0556C152.951 15.3889 151.553 14.2778 149.596 14.2778C148.198 14.2778 146.242 14.9722 146.242 17.4722V18.3056H142.048V17.4722C142.048 13.1667 146.158 11.3611 149.652 11.3611C153.985 11.3611 157.144 13.3056 157.144 17.0556C157.144 21.2222 152.392 23.4444 146.661 26.7778H157.144V29.8333Z" fill="#1A38D5"/>
<path d="M157.286 20.8056C157.286 15.5278 159.942 11.3611 165.393 11.3611C170.844 11.3611 173.5 15.5278 173.5 20.8056C173.5 26.0833 170.844 30.25 165.393 30.25C159.942 30.25 157.286 26.0833 157.286 20.8056ZM161.479 20.8056C161.479 24.6944 162.737 27.3333 165.393 27.3333C168.049 27.3333 169.307 24.6944 169.307 20.8056C169.307 16.9167 168.049 14.2778 165.393 14.2778C162.737 14.2778 161.479 16.9167 161.479 20.8056Z" fill="#1A38D5"/>
</g>
</svg>
