<svg width="169" height="38" viewBox="0 0 169 38" fill="none" xmlns="http://www.w3.org/2000/svg">
<g clip-path="url(#clip0_292_9)">
<path d="M69.3899 9.52431V11.5411C68.2364 10.0389 66.1018 9.00972 63.6258 9.00972C57.7773 9.00972 53.4219 14.2007 53.4219 20.2944C53.4219 26.3882 57.7342 31.5792 63.6258 31.5792C66.1018 31.5792 68.2364 30.5915 69.3899 29.0044V31.0212H76.6902V9.52431H69.3899ZM79.2111 0V31.0194H86.7684V19.5632C86.7684 17.3315 87.8357 16.0026 89.5444 16.0026C91.2532 16.0026 92.1498 17.1618 92.1498 19.3068V31.0194H99.707V17.5049C99.707 12.2706 96.8897 9.00972 92.3636 9.00972C89.9307 9.00972 88.0513 9.95403 86.7271 11.6278V0H79.2129H79.2111ZM148.335 20.2944C148.335 26.7294 143.425 31.5792 136.893 31.5792C130.362 31.5792 125.451 26.7312 125.451 20.2944C125.451 13.8576 130.362 9.00972 136.893 9.00972C143.425 9.00972 148.335 13.8576 148.335 20.2944ZM124.168 20.2944C124.168 26.7294 119.258 31.5792 112.727 31.5792C106.195 31.5792 101.285 26.7312 101.285 20.2944C101.285 13.8576 106.195 9.00972 112.727 9.00972C119.258 9.00972 124.168 13.8576 124.168 20.2944ZM29 9.52431L38.1366 31.191L34.8485 39H42.8748L55.0444 9.52431H47.0595L42.1075 22.1379L37.1969 9.52431H29ZM65.1639 24.7126C62.6448 24.7126 60.724 22.7825 60.724 20.2926C60.724 17.8028 62.6448 15.8726 65.1639 15.8726C67.683 15.8726 69.5624 17.8028 69.5624 20.2926C69.5624 22.7825 67.6416 24.7126 65.1639 24.7126ZM116.997 20.2926C116.997 17.8894 115.204 15.9593 112.728 15.9593C110.252 15.9593 108.459 17.8894 108.459 20.2926C108.459 22.6958 110.252 24.626 112.728 24.626C115.204 24.626 116.997 22.6958 116.997 20.2926ZM141.164 20.2926C141.164 17.8894 139.371 15.9593 136.895 15.9593C134.419 15.9593 132.626 17.8894 132.626 20.2926C132.626 22.6958 134.419 24.626 136.895 24.626C139.371 24.626 141.164 22.6958 141.164 20.2926Z" fill="#151515"/>
</g>
<defs>
<clipPath id="clip0_292_9">
<rect width="123" height="38" fill="white" transform="translate(29)"/>
</clipPath>
</defs>
</svg>
